<svg width="144" height="147" viewBox="0 0 144 147" fill="none" xmlns="http://www.w3.org/2000/svg">
<path d="M143.195 74.5733C143.215 87.4399 139.745 100.071 133.153 111.121C126.562 122.171 117.096 131.226 105.765 137.322C94.4341 143.417 81.6617 146.325 68.8086 145.734C55.9555 145.144 43.5032 141.079 32.7782 133.971C30.4309 132.425 28.1799 130.737 26.038 128.918C17.0165 121.284 10.0374 111.525 5.73044 100.52C1.42344 89.5154 -0.0759698 77.6115 1.36749 65.8825C2.81095 54.1534 7.15188 42.9683 13.9986 33.3362C20.8453 23.7041 29.9824 15.9282 40.5854 10.71C49.1289 6.51486 58.4256 4.07189 67.9277 3.52506C77.4299 2.97822 86.9454 4.33857 95.9138 7.52597C109.749 12.4589 121.719 21.5504 130.184 33.5539C138.649 45.5574 143.193 59.8854 143.195 74.5733Z" fill="white"/>
<path d="M72.0128 146.583C57.8953 146.607 44.0852 142.461 32.3153 134.665C29.9411 133.1 27.6652 131.39 25.5005 129.546C16.3775 121.829 9.31857 111.962 4.9602 100.836C0.601826 89.7099 -0.918948 77.674 0.535001 65.8135C1.98895 53.953 6.37191 42.6408 13.2887 32.8969C20.2055 23.153 29.4386 15.2837 40.1555 9.99859H40.2217C48.8651 5.75535 58.2703 3.28471 67.8832 2.73219C77.4962 2.17968 87.1225 3.55646 96.1951 6.78145H96.253C108.841 11.2885 119.926 19.2104 128.267 29.6603C136.608 40.1101 141.875 52.6754 143.48 65.9492C145.084 79.2231 142.962 92.6815 137.351 104.818C131.74 116.954 122.862 127.289 111.71 134.665C99.9403 142.461 86.1302 146.607 72.0128 146.583ZM41.0074 11.4128L40.9412 11.4542C26.3812 18.6256 14.7489 30.6109 8.01588 45.3788C1.28286 60.1466 -0.136572 76.7883 3.99816 92.483C8.13289 108.178 17.5674 121.96 30.7026 131.494C43.8377 141.027 59.8653 145.726 76.0688 144.793C92.2722 143.86 107.655 137.352 119.608 126.374C131.562 115.395 139.352 100.621 141.658 84.5555C143.964 68.4899 140.643 52.1211 132.26 38.2239C123.876 24.3266 110.945 13.7558 95.6576 8.30318H95.5997C86.7505 5.16776 77.3645 3.82997 67.9917 4.3682C58.6189 4.90642 49.4478 7.30984 41.0156 11.4376L41.0074 11.4128Z" fill="#093F68"/>
<path d="M77.0828 83.1738H66.8276V96.5965H77.0828V83.1738Z" fill="#FFBC0E"/>
<path d="M77.0827 97.4328H66.8275C66.6082 97.4328 66.3978 97.3456 66.2427 97.1905C66.0876 97.0354 66.0005 96.8251 66.0005 96.6057V83.1913C66.0005 82.9719 66.0876 82.7616 66.2427 82.6065C66.3978 82.4514 66.6082 82.3643 66.8275 82.3643H77.0827C77.302 82.3643 77.5124 82.4514 77.6675 82.6065C77.8226 82.7616 77.9097 82.9719 77.9097 83.1913V96.6223C77.9054 96.8387 77.8164 97.0449 77.6617 97.1964C77.5071 97.3479 77.2992 97.4328 77.0827 97.4328ZM67.6545 95.7787H76.2557V84.0183H67.6545V95.7787Z" fill="#093F68"/>
<path d="M111.247 123.177V133.97C99.6095 141.667 85.9652 145.77 72.0128 145.77C58.0603 145.77 44.416 141.667 32.7785 133.97V123.177C32.7598 119.971 33.1602 116.777 33.9694 113.675C37.3519 100.848 47.4086 91.5352 59.2931 91.5352H84.6664C99.3627 91.5352 111.247 105.702 111.247 123.177Z" fill="#017FFA"/>
<path d="M72.0126 146.583C57.8951 146.607 44.085 142.461 32.3151 134.666C32.2001 134.59 32.1059 134.487 32.0409 134.365C31.9759 134.244 31.9423 134.109 31.9429 133.971V123.178C31.9376 119.899 32.3573 116.632 33.1917 113.461C36.781 99.856 47.2513 90.709 59.3176 90.709H84.6909C99.7842 90.709 112.066 105.273 112.066 123.178V133.971C112.066 134.109 112.033 134.244 111.968 134.365C111.903 134.487 111.808 134.59 111.693 134.666C99.9235 142.461 86.1134 146.607 71.996 146.583H72.0126ZM33.6052 133.524C45.0288 140.976 58.3734 144.944 72.0126 144.944C85.6517 144.944 98.9963 140.976 110.42 133.524V123.178C110.42 106.183 98.8828 92.363 84.6992 92.363H59.3259C48.0535 92.363 38.1953 101.014 34.8044 113.866C34.0028 116.896 33.5997 120.019 33.6052 123.153V133.524Z" fill="#093F68"/>
<path d="M48.2108 142.498C47.9915 142.498 47.7811 142.411 47.626 142.255C47.4709 142.1 47.3838 141.89 47.3838 141.671V115.933C47.3838 115.714 47.4709 115.504 47.626 115.349C47.7811 115.194 47.9915 115.106 48.2108 115.106C48.4302 115.106 48.6405 115.194 48.7956 115.349C48.9507 115.504 49.0379 115.714 49.0379 115.933V141.671C49.0379 141.89 48.9507 142.1 48.7956 142.255C48.6405 142.411 48.4302 142.498 48.2108 142.498Z" fill="#093F68"/>
<path d="M95.8148 142.498C95.5955 142.498 95.3851 142.411 95.23 142.255C95.0749 142.1 94.9878 141.89 94.9878 141.671V115.933C94.9878 115.714 95.0749 115.504 95.23 115.349C95.3851 115.194 95.5955 115.106 95.8148 115.106C96.0342 115.106 96.2445 115.194 96.3996 115.349C96.5547 115.504 96.6419 115.714 96.6419 115.933V141.671C96.6419 141.89 96.5547 142.1 96.3996 142.255C96.2445 142.411 96.0342 142.498 95.8148 142.498Z" fill="#093F68"/>
<path d="M72.0126 118.811L63.6514 91.5352H80.3739L72.0126 118.811Z" fill="#093F68"/>
<path d="M72.0129 119.638C71.8294 119.646 71.6485 119.593 71.4988 119.487C71.349 119.38 71.2389 119.227 71.1858 119.051L62.8328 91.7592C62.7957 91.6366 62.7876 91.507 62.8091 91.3807C62.8307 91.2544 62.8812 91.1349 62.9569 91.0315C63.033 90.9272 63.1325 90.8423 63.2474 90.7834C63.3623 90.7245 63.4894 90.6933 63.6185 90.6924H80.3411C80.4702 90.6933 80.5972 90.7245 80.7121 90.7834C80.827 90.8423 80.9265 90.9272 81.0027 91.0315C81.0783 91.1349 81.1289 91.2544 81.1504 91.3807C81.172 91.507 81.1638 91.6366 81.1267 91.7592L72.7737 119.051C72.7239 119.216 72.6237 119.361 72.4873 119.467C72.3509 119.572 72.185 119.632 72.0129 119.638ZM64.7763 92.3464L72.0129 115.991L79.2494 92.363L64.7763 92.3464Z" fill="#093F68"/>
<path d="M78.4637 88.0622C102.567 88.0622 122.106 68.5228 122.106 44.4198C122.106 20.3167 102.567 0.777344 78.4637 0.777344C54.3607 0.777344 34.8213 20.3167 34.8213 44.4198C34.8213 68.5228 54.3607 88.0622 78.4637 88.0622Z" fill="#FFBC0E"/>
<path d="M78.505 88.9057C71.4684 88.9016 64.5329 87.2298 58.2672 84.0275C52.0015 80.8252 46.5839 76.1836 42.4587 70.483C38.3334 64.7825 35.6178 58.1855 34.5346 51.2328C33.4515 44.28 34.0315 37.1696 36.2271 30.4843C38.799 22.7144 43.466 15.8053 49.7139 10.5186C55.9617 5.23176 63.5479 1.77249 71.6363 0.521969C79.7246 -0.728556 88.0013 0.278214 95.554 3.43133C103.107 6.58444 109.642 11.7615 114.441 18.3919C119.239 25.0224 122.113 32.8488 122.748 41.0087C123.382 49.1685 121.751 57.3451 118.035 64.6373C114.318 71.9294 108.661 78.054 101.686 82.3361C94.7111 86.6182 86.6894 88.8916 78.505 88.9057ZM37.7985 31.0136C35.1394 39.0548 34.9248 47.7039 37.182 55.867C39.4392 64.0301 44.0667 71.3404 50.4792 76.8732C56.8917 82.4059 64.801 85.9126 73.2067 86.9495C81.6124 87.9865 90.1368 86.5072 97.7017 82.6987C105.267 78.8903 111.532 72.9238 115.705 65.554C119.879 58.1842 121.773 49.7422 121.147 41.2958C120.522 32.8495 117.406 24.7783 112.193 18.1033C106.98 11.4282 99.9046 6.44922 91.8615 3.79602C81.0707 0.254739 69.3158 1.13961 59.1767 6.25641C49.0377 11.3732 41.3432 20.3038 37.782 31.088L37.7985 31.0136Z" fill="#093F68"/>
<path d="M99.4964 38.6339C100.716 34.9383 99.2745 31.1407 96.2772 30.1518C93.2799 29.1629 89.8617 31.3571 88.6424 35.0527C87.423 38.7483 88.8643 42.5458 91.8616 43.5347C94.8588 44.5237 98.2771 42.3295 99.4964 38.6339Z" fill="#093F68"/>
<path d="M75.8441 30.8272C77.0634 27.1316 75.6221 23.3341 72.6249 22.3452C69.6276 21.3562 66.2094 23.5504 64.99 27.246C63.7707 30.9416 65.212 34.7392 68.2092 35.7281C71.2065 36.717 74.6247 34.5228 75.8441 30.8272Z" fill="#093F68"/>
<path d="M104.863 58.9016C104.73 58.9004 104.599 58.8781 104.474 58.8354L48.9802 40.525C48.6676 40.4219 48.4088 40.1988 48.2607 39.9049C48.1126 39.611 48.0873 39.2703 48.1904 38.9577C48.2935 38.6452 48.5165 38.3864 48.8104 38.2382C49.1043 38.0901 49.445 38.0648 49.7576 38.1679L105.251 56.4784C105.535 56.5681 105.777 56.7568 105.933 57.0099C106.089 57.2631 106.149 57.5639 106.102 57.8576C106.055 58.1513 105.904 58.4183 105.676 58.6099C105.449 58.8015 105.16 58.905 104.863 58.9016Z" fill="#093F68"/>
<path d="M72.0126 146.583C71.7932 146.583 71.5829 146.496 71.4278 146.341C71.2727 146.186 71.1855 145.975 71.1855 145.756V118.811C71.1855 118.592 71.2727 118.382 71.4278 118.227C71.5829 118.072 71.7932 117.984 72.0126 117.984C72.2319 117.984 72.4423 118.072 72.5974 118.227C72.7525 118.382 72.8396 118.592 72.8396 118.811V145.756C72.8396 145.975 72.7525 146.186 72.5974 146.341C72.4423 146.496 72.2319 146.583 72.0126 146.583Z" fill="#093F68"/>
<path d="M85.7165 136.774C85.5552 136.775 85.3971 136.729 85.2617 136.642L79.919 133.135C79.8053 133.06 79.7118 132.958 79.6468 132.839C79.5819 132.719 79.5476 132.585 79.5469 132.449V121.764C79.5469 121.544 79.634 121.334 79.7891 121.179C79.9442 121.024 80.1546 120.937 80.3739 120.937H91.0343C91.2537 120.937 91.464 121.024 91.6191 121.179C91.7742 121.334 91.8614 121.544 91.8614 121.764V132.449C91.8607 132.585 91.8263 132.719 91.7614 132.839C91.6965 132.958 91.603 133.06 91.4892 133.135L86.1466 136.642C86.0182 136.725 85.8694 136.771 85.7165 136.774ZM81.2009 131.986L85.7165 134.946L90.2073 131.986V122.591H81.2009V131.986Z" fill="#093F68"/>
</svg>
