<svg width="146" height="146" viewBox="0 0 146 146" fill="none" xmlns="http://www.w3.org/2000/svg">
<path d="M144.477 72.9617C144.488 84.7824 141.562 96.4205 135.962 106.831C130.363 117.241 122.265 126.098 112.397 132.605C109.524 134.514 106.512 136.205 103.386 137.662C101.277 138.659 99.1152 139.55 96.9006 140.337C81.4381 145.816 64.5622 145.816 49.0997 140.337C46.8851 139.545 44.7232 138.653 42.6138 137.662C36.9313 134.994 31.6259 131.588 26.8352 127.531C17.7764 119.866 10.7684 110.066 6.44358 99.016C2.11875 87.9657 0.613132 76.0125 2.06257 64.2349C3.51201 52.4573 7.8709 41.2258 14.746 31.5539C21.621 21.8819 30.7959 14.0738 41.4429 8.83402C50.0217 4.62147 59.3569 2.1684 68.8984 1.6193C78.4399 1.07019 87.9948 2.43618 97.0003 5.63677C110.892 10.5902 122.912 19.7193 131.412 31.7725C139.912 43.8257 144.476 58.2129 144.477 72.9617Z" fill="white"/>
<path d="M73 145.269C69.4901 145.271 65.9847 145.018 62.5113 144.513C57.8461 143.833 53.2593 142.696 48.8171 141.117C46.5749 140.286 44.3659 139.406 42.2565 138.409C39.0862 136.938 36.0324 135.228 33.1215 133.294C30.7349 131.725 28.4468 130.011 26.2703 128.162C17.1104 120.411 10.0237 110.502 5.64919 99.3282C1.27467 88.1548 -0.250104 76.0683 1.21236 64.1585C2.67482 52.2487 7.07852 40.8902 14.0264 31.1071C20.9743 21.324 30.2478 13.424 41.0109 8.11938H41.0773C49.7524 3.86018 59.1919 1.37945 68.8401 0.823235C78.4884 0.267017 88.1505 1.64654 97.2575 4.88061H97.3074C109.952 9.40008 121.088 17.3508 129.469 27.8422C137.85 38.3335 143.144 50.9511 144.759 64.2815C146.374 77.612 144.245 91.1287 138.611 103.318C132.978 115.506 124.062 125.886 112.862 133.294C109.95 135.229 106.896 136.942 103.727 138.418C101.626 139.406 99.4167 140.319 97.1745 141.117C92.7298 142.697 88.1401 143.834 83.472 144.513C80.0042 145.018 76.5043 145.271 73 145.269ZM41.8662 9.53946L41.7998 9.58099C31.2773 14.7611 22.2101 22.4795 15.4161 32.0397C8.62214 41.6 4.31521 52.7012 2.88391 64.342C1.45261 75.9828 2.94196 87.7968 7.2176 98.7181C11.4932 109.639 18.4206 119.324 27.3748 126.899C29.5002 128.694 31.7327 130.358 34.06 131.882C36.897 133.766 39.8731 135.432 42.9624 136.865C45.056 137.856 47.1986 138.74 49.3818 139.514C53.7179 141.06 58.1966 142.173 62.7522 142.836C69.5461 143.816 76.4455 143.816 83.2395 142.836C87.798 142.174 92.2795 141.061 96.6181 139.514C98.8188 138.733 100.97 137.853 103.029 136.873C106.119 135.435 109.097 133.77 111.94 131.89C122.883 124.654 131.596 114.514 137.101 102.606C142.607 90.6978 144.688 77.492 143.113 64.4677C141.537 51.4433 136.366 39.115 128.179 28.8636C119.992 18.6122 109.113 10.8426 96.7593 6.42526H96.7177C87.8274 3.26671 78.3954 1.91661 68.976 2.45425C59.5565 2.9919 50.3395 5.40645 41.8662 9.55607V9.53946Z" fill="#093F68"/>
<path d="M78.0906 81.5977H67.793V95.0759H78.0906V81.5977Z" fill="#FFBC0E"/>
<path d="M78.0905 95.9151H67.7929C67.5726 95.9151 67.3614 95.8276 67.2056 95.6718C67.0499 95.5161 66.9624 95.3049 66.9624 95.0846V81.6146C66.9624 81.3944 67.0499 81.1832 67.2056 81.0274C67.3614 80.8717 67.5726 80.7842 67.7929 80.7842H78.0905C78.3108 80.7842 78.522 80.8717 78.6777 81.0274C78.8335 81.1832 78.921 81.3944 78.921 81.6146V95.1012C78.9166 95.3186 78.8272 95.5256 78.6719 95.6777C78.5166 95.8299 78.3079 95.9151 78.0905 95.9151ZM68.6233 94.2542H77.26V82.4451H68.6233V94.2542Z" fill="#093F68"/>
<path d="M110.37 117.216L109.183 134.59C104.391 137.77 102.381 138.385 96.8754 140.336C81.4112 145.807 64.5386 145.807 49.0744 140.336C43.5685 138.385 43.1533 138.966 38.3698 135.785C36.2229 128.107 35.0236 120.195 34.7989 112.225C34.6992 100.342 48.2938 89.9941 60.2274 89.9941H85.7057C100.463 89.9941 110.37 99.6772 110.37 117.216Z" fill="#017FFA"/>
<path d="M73.0001 145.269C64.7611 145.276 56.5818 143.872 48.8173 141.116C47.2477 140.56 46.0768 140.203 45.1301 139.912C42.5349 139.226 40.0923 138.056 37.93 136.466C37.7709 136.359 37.6535 136.201 37.5978 136.017C35.4278 128.266 34.2091 120.279 33.9688 112.233C33.9688 107.25 36.2359 102.118 40.4795 97.8413C45.7861 92.4849 53.3516 89.1631 60.2277 89.1631H85.7061C101.427 89.1631 111.193 99.9092 111.193 117.216V117.274L109.997 134.647C109.989 134.775 109.952 134.899 109.889 135.01C109.826 135.12 109.737 135.215 109.631 135.287C105.047 138.326 102.872 139.098 98.1048 140.784L97.1497 141.125C89.3952 143.874 81.2274 145.275 73.0001 145.269ZM39.1093 135.262C41.0657 136.683 43.2713 137.725 45.6117 138.334C46.5751 138.625 47.7626 138.982 49.3737 139.555C64.6612 144.959 81.339 144.959 96.6265 139.555L97.5816 139.215C102.232 137.554 104.225 136.873 108.377 134.124L109.54 117.191C109.54 100.681 100.621 90.824 85.7144 90.824H60.2609C53.8166 90.824 46.6996 93.9631 41.692 99.0123C37.7639 102.965 35.6213 107.657 35.6629 112.217C35.8867 120.008 37.0437 127.745 39.1093 135.262Z" fill="#093F68"/>
<path d="M49.0996 141.167C48.8794 141.167 48.6681 141.08 48.5124 140.924C48.3567 140.768 48.2692 140.557 48.2692 140.337V140.237C48.2692 136.018 47.3889 130.462 46.5418 125.098C45.6947 119.733 44.7979 114.053 44.7979 109.693C44.7979 109.473 44.8853 109.261 45.0411 109.106C45.1968 108.95 45.4081 108.862 45.6283 108.862C45.8486 108.862 46.0598 108.95 46.2155 109.106C46.3713 109.261 46.4588 109.473 46.4588 109.693C46.4588 113.92 47.3307 119.467 48.1778 124.84C49.0249 130.213 49.9301 135.885 49.9301 140.237V140.337C49.9301 140.557 49.8426 140.768 49.6868 140.924C49.5311 141.08 49.3199 141.167 49.0996 141.167Z" fill="#093F68"/>
<path d="M96.9003 141.167C96.68 141.167 96.4688 141.08 96.3131 140.924C96.1573 140.768 96.0698 140.557 96.0698 140.337C96.0698 135.993 96.5349 130.653 96.975 125.488C97.4152 120.323 97.9134 115.057 97.9134 110.781C97.9134 110.56 98.0009 110.349 98.1567 110.193C98.3124 110.038 98.5236 109.95 98.7439 109.95C98.9641 109.95 99.1754 110.038 99.3311 110.193C99.4869 110.349 99.5743 110.56 99.5743 110.781C99.5743 115.132 99.1176 120.472 98.6692 125.637C98.2207 130.803 97.7723 136.068 97.7723 140.337C97.7724 140.449 97.7496 140.561 97.7053 140.664C97.661 140.768 97.5961 140.861 97.5145 140.939C97.433 141.017 97.3364 141.077 97.2308 141.116C97.1252 141.155 97.0128 141.173 96.9003 141.167Z" fill="#093F68"/>
<path d="M72.9999 117.383L64.604 89.9941H81.3958L72.9999 117.383Z" fill="#093F68"/>
<path d="M73.0002 118.213C72.816 118.221 72.6344 118.168 72.484 118.061C72.3336 117.954 72.2231 117.8 72.1698 117.624L63.7822 90.2187C63.7449 90.0956 63.7368 89.9655 63.7584 89.8387C63.78 89.7118 63.8308 89.5918 63.9068 89.4879C63.9832 89.3833 64.0832 89.298 64.1985 89.2388C64.3139 89.1797 64.4415 89.1484 64.5711 89.1475H81.3629C81.4925 89.1484 81.6201 89.1797 81.7355 89.2388C81.8509 89.298 81.9508 89.3833 82.0273 89.4879C82.1032 89.5918 82.154 89.7118 82.1756 89.8387C82.1972 89.9655 82.1891 90.0956 82.1518 90.2187L73.7642 117.624C73.7142 117.789 73.6136 117.935 73.4767 118.041C73.3397 118.147 73.1731 118.207 73.0002 118.213ZM65.7337 90.8084L73.0002 114.551L80.2667 90.825L65.7337 90.8084Z" fill="#093F68"/>
<path d="M73.0003 102.526C97.2032 102.526 116.823 82.9058 116.823 58.703C116.823 34.5002 97.2032 14.8799 73.0003 14.8799C48.7975 14.8799 29.1772 34.5002 29.1772 58.703C29.1772 82.9058 48.7975 102.526 73.0003 102.526Z" fill="#FFBC0E"/>
<path d="M73.0002 103.356C64.1686 103.356 55.5353 100.737 48.1921 95.8305C40.8488 90.9239 35.1255 83.9499 31.7458 75.7906C28.366 67.6312 27.4817 58.6529 29.2047 49.9909C30.9277 41.329 35.1805 33.3725 41.4254 27.1276C47.6703 20.8827 55.6268 16.6298 64.2888 14.9069C72.9507 13.1839 81.929 14.0682 90.0884 17.4479C98.2478 20.8276 105.222 26.551 110.128 33.8942C115.035 41.2374 117.654 49.8708 117.654 58.7024C117.641 70.5412 112.932 81.8913 104.56 90.2626C96.1892 98.634 84.8391 103.343 73.0002 103.356ZM73.0002 15.7098C64.4971 15.7098 56.1849 18.2312 49.1148 22.9553C42.0447 27.6794 36.5342 34.3939 33.2802 42.2498C30.0262 50.1057 29.1748 58.7501 30.8337 67.0898C32.4926 75.4296 36.5872 83.0901 42.5999 89.1028C48.6125 95.1154 56.273 99.2101 64.6128 100.869C72.9526 102.528 81.5969 101.676 89.4528 98.4224C97.3087 95.1684 104.023 89.6579 108.747 82.5878C113.471 75.5177 115.993 67.2055 115.993 58.7024C115.982 47.3034 111.449 36.3745 103.388 28.3142C95.3282 20.2539 84.3992 15.7208 73.0002 15.7098Z" fill="#093F68"/>
<path d="M60.4933 53.6451C63.6626 53.6451 66.2318 50.4773 66.2318 46.5696C66.2318 42.6619 63.6626 39.4941 60.4933 39.4941C57.3241 39.4941 54.7549 42.6619 54.7549 46.5696C54.7549 50.4773 57.3241 53.6451 60.4933 53.6451Z" fill="#093F68"/>
<path d="M85.5065 53.6451C88.6758 53.6451 91.245 50.4773 91.245 46.5696C91.245 42.6619 88.6758 39.4941 85.5065 39.4941C82.3373 39.4941 79.7681 42.6619 79.7681 46.5696C79.7681 50.4773 82.3373 53.6451 85.5065 53.6451Z" fill="#093F68"/>
<path d="M43.6602 80.6923C46.4339 71.5573 58.517 64.6396 73.0001 64.6396C87.4832 64.6396 99.5747 71.5407 102.34 80.6923" fill="#FFBC0E"/>
<path d="M102.34 81.9469C102.072 81.9461 101.811 81.8594 101.596 81.6994C101.381 81.5395 101.222 81.3148 101.144 81.0583C98.4868 72.2721 86.6445 65.8859 73.0002 65.8859C59.3558 65.8859 47.5135 72.2721 44.8561 81.0583C44.812 81.2187 44.7363 81.3686 44.6333 81.4993C44.5304 81.6299 44.4023 81.7387 44.2567 81.819C44.111 81.8994 43.9508 81.9497 43.7853 81.9672C43.6199 81.9846 43.4527 81.9687 43.2935 81.9205C43.1343 81.8722 42.9864 81.7926 42.8585 81.6862C42.7306 81.5799 42.6253 81.449 42.5488 81.3013C42.4723 81.1536 42.4261 80.9921 42.413 80.8263C42.4 80.6604 42.4202 80.4937 42.4727 80.3358C45.4457 70.5198 58.2513 63.3945 73.0002 63.3945C87.749 63.3945 100.555 70.5198 103.528 80.3358C103.576 80.4923 103.593 80.6568 103.578 80.8199C103.562 80.983 103.514 81.1414 103.437 81.2858C103.36 81.4303 103.255 81.558 103.128 81.6615C103.001 81.765 102.854 81.8422 102.697 81.8888C102.581 81.9242 102.461 81.9438 102.34 81.9469Z" fill="#093F68"/>
<path d="M53.9741 40.7396C53.8105 40.7511 53.6463 40.7302 53.4908 40.6782C53.3353 40.6262 53.1915 40.544 53.0677 40.4364C52.8178 40.2192 52.6644 39.9115 52.6412 39.5812C52.6181 39.2508 52.7272 38.9247 52.9444 38.6748C53.1617 38.4248 53.4693 38.2714 53.7997 38.2483L66.7382 36.4379C66.9003 36.4132 67.0657 36.4211 67.2247 36.4609C67.3838 36.5007 67.5333 36.5718 67.6647 36.6699C67.7961 36.768 67.9066 36.8913 67.9899 37.0325C68.0732 37.1737 68.1276 37.3301 68.15 37.4926C68.1928 37.8202 68.1055 38.1515 67.9067 38.4155C67.708 38.6794 67.4137 38.8549 67.087 38.9043L54.1485 40.7147L53.9741 40.7396Z" fill="#093F68"/>
<path d="M92.0259 40.7401H91.8515L78.913 38.9297C78.5863 38.8803 78.292 38.7048 78.0932 38.4409C77.8945 38.1769 77.8072 37.8456 77.85 37.5179C77.8724 37.3555 77.9268 37.1991 78.0101 37.0579C78.0934 36.9167 78.2039 36.7934 78.3353 36.6953C78.4666 36.5972 78.6162 36.5261 78.7753 36.4863C78.9343 36.4465 79.0997 36.4386 79.2618 36.4633L92.2003 38.2737C92.5306 38.2968 92.8383 38.4502 93.0556 38.7002C93.2728 38.9501 93.3819 39.2762 93.3588 39.6065C93.3356 39.9369 93.1822 40.2446 92.9323 40.4618C92.6823 40.6791 92.3563 40.7882 92.0259 40.765V40.7401Z" fill="#093F68"/>
<path d="M72.9999 145.269C72.7796 145.269 72.5684 145.181 72.4127 145.026C72.2569 144.87 72.1694 144.659 72.1694 144.438V117.382C72.1694 117.162 72.2569 116.951 72.4127 116.795C72.5684 116.639 72.7796 116.552 72.9999 116.552C73.2201 116.552 73.4314 116.639 73.5871 116.795C73.7428 116.951 73.8303 117.162 73.8303 117.382V144.438C73.8303 144.659 73.7428 144.87 73.5871 145.026C73.4314 145.181 73.2201 145.269 72.9999 145.269Z" fill="#093F68"/>
<path d="M86.7523 135.42C86.5932 135.419 86.4375 135.373 86.3039 135.287L80.9391 131.766C80.8249 131.691 80.731 131.588 80.6658 131.468C80.6006 131.348 80.5661 131.213 80.5654 131.077V120.347C80.5654 120.127 80.6529 119.916 80.8087 119.76C80.9644 119.604 81.1756 119.517 81.3959 119.517H92.1004C92.3207 119.517 92.5319 119.604 92.6877 119.76C92.8434 119.916 92.9309 120.127 92.9309 120.347V131.077C92.9302 131.213 92.8957 131.348 92.8305 131.468C92.7653 131.588 92.6714 131.691 92.5572 131.766L87.1925 135.287C87.0612 135.372 86.9086 135.418 86.7523 135.42ZM82.2263 130.611L86.7523 133.585L91.27 130.611V121.178H82.2263V130.611Z" fill="#093F68"/>
<path d="M62.636 143.692C58.0254 143.034 53.4911 141.921 49.0996 140.37C46.8851 139.578 44.7231 138.687 42.6138 137.696C46.2678 123.819 54.4893 106.064 54.4893 106.064C54.4893 106.064 44.0172 98.2242 43.3196 94.454C42.6221 90.6837 43.6601 91.2567 43.6601 91.2567C50.398 95.7263 57.6084 99.4388 65.1606 102.327C67.2617 103.107 66.398 127.29 62.636 143.692Z" fill="#FFBC0E"/>
<path d="M62.6357 144.522H62.5194C57.8514 143.843 53.2616 142.705 48.8169 141.125C46.5747 140.295 44.3657 139.415 42.2563 138.418C42.0825 138.336 41.9428 138.195 41.861 138.021C41.7792 137.847 41.7604 137.65 41.8079 137.463C45.0633 125.114 51.9893 109.543 53.4343 106.296C51.1007 104.511 43.1449 98.1826 42.4806 94.6116C42.0404 92.303 42.1484 91.1486 42.8377 90.6338C43.0041 90.5066 43.2031 90.429 43.4117 90.4099C43.6204 90.3908 43.8301 90.431 44.0169 90.5258L44.1166 90.5839C50.8003 95.0165 57.9556 98.693 65.4509 101.546C66.0073 101.754 67.6932 102.376 66.9292 117.183C66.4906 126.16 65.3241 135.086 63.4412 143.874C63.4 144.057 63.2978 144.221 63.1515 144.339C63.0052 144.456 62.8234 144.521 62.6357 144.522ZM43.5934 137.206C45.4619 138.036 47.4052 138.867 49.4066 139.556C53.5028 141.012 57.726 142.082 62.0212 142.753C65.7748 125.779 66.0406 105.017 64.7866 103.066C57.4828 100.252 50.4938 96.6807 43.9339 92.4109C43.9555 93.039 44.0305 93.6641 44.1581 94.2795C44.6813 97.0947 52.172 103.223 55.0121 105.349C55.1646 105.463 55.2734 105.626 55.3203 105.81C55.3671 105.995 55.3492 106.19 55.2696 106.363C55.1616 106.529 47.2557 123.661 43.5934 137.206Z" fill="#093F68"/>
<path d="M103.386 137.662C101.277 138.659 99.1149 139.55 96.9004 140.336C92.5089 141.887 87.9746 143 83.364 143.658C79.602 127.223 78.7383 103.074 80.8726 102.293C88.246 99.5173 95.2851 95.9239 101.858 91.5803C101.858 91.5803 103.386 90.7499 102.689 94.462C101.991 98.1741 91.519 106.039 91.519 106.039C91.519 106.039 99.7322 123.785 103.386 137.662Z" fill="#FFBC0E"/>
<path d="M83.3643 144.521C83.1723 144.526 82.9846 144.464 82.8332 144.346C82.6818 144.228 82.576 144.061 82.5338 143.873C80.651 135.085 79.4845 126.159 79.0459 117.183C78.2819 102.384 79.9677 101.753 80.5241 101.545C87.8478 98.7878 94.8373 95.2137 101.36 90.8904H101.427C101.661 90.7552 101.929 90.689 102.199 90.6993C102.469 90.7096 102.731 90.796 102.955 90.9485C103.694 91.48 103.852 92.6094 103.47 94.6524C102.805 98.215 94.8495 104.543 92.5159 106.329C93.9858 109.576 100.912 125.147 104.142 137.496C104.19 137.682 104.171 137.879 104.089 138.053C104.007 138.228 103.868 138.368 103.694 138.451C101.584 139.447 99.3754 140.361 97.1332 141.158C92.6885 142.738 88.0988 143.876 83.4307 144.554L83.3643 144.521ZM81.2383 103.065C79.9843 105.016 80.2501 125.778 84.0037 142.752C88.2989 142.081 92.5221 141.011 96.6183 139.555C98.5948 138.849 100.538 138.06 102.432 137.205C98.7526 123.652 90.8633 106.553 90.8051 106.378C90.7255 106.206 90.7076 106.011 90.7544 105.826C90.8013 105.642 90.9101 105.479 91.0626 105.365C93.9027 103.239 101.393 97.1105 101.917 94.3036C102.053 93.7019 102.106 93.0844 102.074 92.4683C95.5367 96.7505 88.5497 100.304 81.2383 103.065Z" fill="#093F68"/>
</svg>
