<svg width="315" height="240" viewBox="0 0 315 240" fill="none" xmlns="http://www.w3.org/2000/svg">
<circle cx="101" cy="120" r="70" fill="#FFD646"/>
<circle cx="101.278" cy="92.2774" r="6" transform="rotate(14.0533 101.278 92.2774)" fill="#222222"/>
<circle cx="146.278" cy="102.277" r="6" transform="rotate(14.0533 146.278 102.277)" fill="#222222"/>
<path d="M62.4376 115.33C60.9356 120.363 60.4397 125.644 60.9783 130.869C61.5168 136.094 63.0793 141.162 65.5765 145.783C68.0737 150.405 71.4566 154.489 75.5322 157.803C79.6078 161.117 84.2962 163.595 89.3298 165.097C94.3633 166.599 99.6435 167.095 104.869 166.557C110.094 166.018 115.162 164.456 119.783 161.959C124.404 159.461 128.489 156.078 131.803 152.003C135.117 147.927 137.595 143.239 139.097 138.205C139.097 138.205 111.5 135.738 98 130.869C84.5 126 62.4376 115.33 62.4376 115.33Z" fill="#F8F8F8"/>
<path d="M194.955 129.554C192.049 129.554 189.55 128.938 187.457 127.707C185.377 126.464 183.777 124.741 182.656 122.537C181.548 120.333 180.994 117.797 180.994 114.929C180.994 112.024 181.554 109.475 182.675 107.284C183.807 105.08 185.414 103.363 187.494 102.132C189.575 100.889 192.049 100.267 194.918 100.267C197.392 100.267 199.559 100.716 201.418 101.615C203.277 102.514 204.748 103.776 205.831 105.401C206.914 107.026 207.511 108.934 207.622 111.125H200.199C199.99 109.709 199.436 108.571 198.537 107.709C197.651 106.835 196.487 106.398 195.047 106.398C193.828 106.398 192.763 106.73 191.852 107.395C190.954 108.047 190.252 109.001 189.747 110.257C189.242 111.513 188.99 113.033 188.99 114.818C188.99 116.628 189.236 118.167 189.729 119.435C190.233 120.703 190.941 121.669 191.852 122.334C192.763 122.999 193.828 123.331 195.047 123.331C195.946 123.331 196.752 123.146 197.466 122.777C198.192 122.408 198.789 121.872 199.257 121.17C199.737 120.456 200.051 119.601 200.199 118.604H207.622C207.499 120.77 206.908 122.679 205.849 124.328C204.803 125.965 203.357 127.246 201.51 128.169C199.663 129.092 197.478 129.554 194.955 129.554ZM220.83 129.577C218.882 129.577 217.145 129.239 215.62 128.562C214.096 127.873 212.889 126.859 212.001 125.52C211.126 124.168 210.688 122.484 210.688 120.469C210.688 118.772 211 117.347 211.623 116.193C212.246 115.04 213.095 114.112 214.169 113.409C215.242 112.706 216.462 112.176 217.828 111.818C219.206 111.46 220.651 111.208 222.163 111.062C223.939 110.877 225.371 110.705 226.458 110.545C227.545 110.373 228.334 110.121 228.825 109.79C229.315 109.458 229.561 108.968 229.561 108.318V108.199C229.561 106.939 229.163 105.965 228.367 105.276C227.585 104.586 226.472 104.241 225.026 104.241C223.502 104.241 222.289 104.58 221.387 105.256C220.486 105.919 219.889 106.754 219.597 107.761L211.762 107.125C212.16 105.269 212.942 103.665 214.109 102.312C215.276 100.947 216.78 99.8996 218.623 99.1705C220.479 98.428 222.627 98.0568 225.066 98.0568C226.763 98.0568 228.387 98.2557 229.938 98.6534C231.503 99.0511 232.888 99.6676 234.095 100.503C235.314 101.338 236.276 102.412 236.978 103.724C237.681 105.024 238.032 106.581 238.032 108.398V129H229.998V124.764H229.759C229.269 125.719 228.613 126.561 227.791 127.29C226.969 128.006 225.981 128.569 224.828 128.98C223.674 129.378 222.342 129.577 220.83 129.577ZM223.257 123.73C224.503 123.73 225.603 123.485 226.558 122.994C227.512 122.491 228.261 121.814 228.805 120.966C229.348 120.117 229.62 119.156 229.62 118.082V114.841C229.355 115.013 228.99 115.172 228.526 115.318C228.076 115.451 227.565 115.577 226.995 115.696C226.425 115.802 225.855 115.902 225.285 115.994C224.715 116.074 224.198 116.147 223.734 116.213C222.74 116.359 221.871 116.591 221.129 116.909C220.386 117.227 219.81 117.658 219.399 118.202C218.988 118.732 218.782 119.395 218.782 120.19C218.782 121.344 219.2 122.225 220.035 122.835C220.883 123.432 221.957 123.73 223.257 123.73ZM244.006 129V96.2727H252.806V101.983H253.147C253.743 99.9517 254.745 98.4176 256.151 97.3807C257.557 96.3295 259.177 95.804 261.009 95.804C261.463 95.804 261.954 95.8324 262.479 95.8892C263.005 95.946 263.466 96.0241 263.864 96.1236V104.178C263.438 104.05 262.848 103.936 262.096 103.837C261.343 103.737 260.654 103.688 260.029 103.688C258.694 103.688 257.5 103.979 256.449 104.561C255.412 105.129 254.588 105.925 253.978 106.947C253.381 107.97 253.083 109.149 253.083 110.484V129H244.006ZM267.898 129V94.0909H277.58V129H267.898ZM272.762 89.5909C271.323 89.5909 270.088 89.1136 269.057 88.1591C268.042 87.1894 267.535 86.0303 267.535 84.6818C267.535 83.3485 268.042 82.2045 269.057 81.25C270.088 80.2803 271.323 79.7955 272.762 79.7955C274.201 79.7955 275.429 80.2803 276.444 81.25C277.474 82.2045 277.989 83.3485 277.989 84.6818C277.989 86.0303 277.474 87.1894 276.444 88.1591C275.429 89.1136 274.201 89.5909 272.762 89.5909ZM181.173 166V146.364H186.364V149.828H186.594C187.003 148.678 187.685 147.77 188.639 147.105C189.594 146.44 190.736 146.108 192.065 146.108C193.412 146.108 194.558 146.445 195.504 147.118C196.45 147.783 197.081 148.686 197.396 149.828H197.601C198.001 148.703 198.726 147.804 199.774 147.131C200.831 146.449 202.08 146.108 203.52 146.108C205.352 146.108 206.839 146.692 207.982 147.859C209.132 149.018 209.707 150.663 209.707 152.794V166H204.274V153.868C204.274 152.777 203.984 151.959 203.405 151.413C202.825 150.868 202.101 150.595 201.232 150.595C200.243 150.595 199.472 150.911 198.918 151.541C198.364 152.163 198.087 152.986 198.087 154.009V166H192.807V153.753C192.807 152.79 192.53 152.023 191.976 151.452C191.43 150.881 190.71 150.595 189.815 150.595C189.21 150.595 188.665 150.749 188.179 151.055C187.702 151.354 187.322 151.776 187.041 152.321C186.76 152.858 186.619 153.489 186.619 154.213V166H181.173ZM219.069 166.371C217.816 166.371 216.699 166.153 215.719 165.719C214.739 165.276 213.964 164.624 213.393 163.763C212.83 162.893 212.549 161.811 212.549 160.516C212.549 159.425 212.749 158.509 213.15 157.767C213.55 157.026 214.096 156.429 214.786 155.977C215.476 155.526 216.26 155.185 217.138 154.955C218.025 154.724 218.954 154.562 219.925 154.469C221.067 154.349 221.988 154.239 222.687 154.136C223.385 154.026 223.893 153.864 224.208 153.651C224.523 153.437 224.681 153.122 224.681 152.705V152.628C224.681 151.818 224.425 151.192 223.914 150.749C223.411 150.305 222.695 150.084 221.766 150.084C220.786 150.084 220.006 150.301 219.427 150.736C218.847 151.162 218.464 151.699 218.276 152.347L213.239 151.938C213.495 150.744 213.998 149.713 214.748 148.844C215.498 147.966 216.465 147.293 217.65 146.824C218.843 146.347 220.223 146.108 221.792 146.108C222.883 146.108 223.927 146.236 224.924 146.491C225.929 146.747 226.82 147.143 227.596 147.68C228.38 148.217 228.998 148.908 229.449 149.751C229.901 150.587 230.127 151.588 230.127 152.756V166H224.962V163.277H224.809C224.493 163.891 224.072 164.432 223.543 164.901C223.015 165.361 222.38 165.723 221.638 165.987C220.897 166.243 220.04 166.371 219.069 166.371ZM220.628 162.612C221.429 162.612 222.137 162.455 222.75 162.139C223.364 161.815 223.846 161.381 224.195 160.835C224.545 160.29 224.719 159.672 224.719 158.982V156.898C224.549 157.009 224.314 157.111 224.016 157.205C223.726 157.29 223.398 157.371 223.032 157.447C222.665 157.516 222.299 157.58 221.932 157.639C221.566 157.69 221.233 157.737 220.935 157.78C220.296 157.874 219.738 158.023 219.26 158.227C218.783 158.432 218.412 158.709 218.148 159.058C217.884 159.399 217.752 159.825 217.752 160.337C217.752 161.078 218.02 161.645 218.557 162.037C219.103 162.42 219.793 162.612 220.628 162.612ZM239.258 154.648V166H233.812V146.364H239.002V149.828H239.232C239.667 148.686 240.396 147.783 241.419 147.118C242.441 146.445 243.681 146.108 245.139 146.108C246.502 146.108 247.691 146.406 248.706 147.003C249.72 147.599 250.508 148.452 251.071 149.56C251.633 150.659 251.914 151.972 251.914 153.497V166H246.468V154.469C246.477 153.267 246.17 152.33 245.548 151.656C244.926 150.974 244.069 150.634 242.978 150.634C242.245 150.634 241.598 150.791 241.035 151.107C240.481 151.422 240.046 151.882 239.731 152.487C239.424 153.084 239.267 153.804 239.258 154.648ZM255.667 166V146.364H261.113V166H255.667ZM258.402 143.832C257.593 143.832 256.898 143.564 256.319 143.027C255.748 142.482 255.462 141.83 255.462 141.071C255.462 140.321 255.748 139.678 256.319 139.141C256.898 138.595 257.593 138.322 258.402 138.322C259.212 138.322 259.902 138.595 260.473 139.141C261.053 139.678 261.343 140.321 261.343 141.071C261.343 141.83 261.053 142.482 260.473 143.027C259.902 143.564 259.212 143.832 258.402 143.832ZM281.273 151.963L276.287 152.27C276.202 151.844 276.019 151.46 275.738 151.119C275.456 150.77 275.086 150.493 274.626 150.288C274.174 150.075 273.633 149.969 273.002 149.969C272.158 149.969 271.447 150.148 270.867 150.506C270.287 150.855 269.998 151.324 269.998 151.912C269.998 152.381 270.185 152.777 270.56 153.101C270.935 153.425 271.579 153.685 272.491 153.881L276.045 154.597C277.954 154.989 279.377 155.619 280.314 156.489C281.252 157.358 281.721 158.5 281.721 159.915C281.721 161.202 281.341 162.331 280.583 163.303C279.833 164.274 278.802 165.033 277.489 165.578C276.185 166.115 274.681 166.384 272.976 166.384C270.377 166.384 268.306 165.842 266.763 164.76C265.229 163.669 264.33 162.186 264.066 160.311L269.422 160.03C269.584 160.822 269.976 161.428 270.599 161.845C271.221 162.254 272.018 162.459 272.989 162.459C273.944 162.459 274.711 162.276 275.29 161.909C275.878 161.534 276.177 161.053 276.185 160.464C276.177 159.97 275.968 159.565 275.559 159.25C275.15 158.926 274.519 158.679 273.667 158.509L270.266 157.831C268.349 157.447 266.921 156.783 265.983 155.837C265.054 154.891 264.59 153.685 264.59 152.219C264.59 150.957 264.931 149.871 265.613 148.959C266.303 148.047 267.27 147.344 268.515 146.849C269.768 146.355 271.233 146.108 272.912 146.108C275.393 146.108 277.344 146.632 278.768 147.68C280.199 148.729 281.035 150.156 281.273 151.963Z" fill="white"/>
<rect x="175" y="182" width="111" height="4" fill="white"/>
</svg>
