<svg width="1234" height="653" viewBox="0 0 1234 653" fill="none" xmlns="http://www.w3.org/2000/svg">
<path d="M645.241 354.238C628.262 354.238 613.657 350.64 601.426 343.446C589.268 336.179 579.915 326.107 573.368 313.229C566.893 300.351 563.655 285.53 563.655 268.767C563.655 251.788 566.929 236.895 573.476 224.089C580.095 211.211 589.483 201.174 601.642 193.98C613.801 186.713 628.262 183.08 645.025 183.08C659.486 183.08 672.148 185.706 683.012 190.958C693.876 196.21 702.473 203.584 708.804 213.081C715.136 222.578 718.625 233.729 719.272 246.536H675.889C674.666 238.262 671.429 231.607 666.177 226.571C660.997 221.463 654.198 218.909 645.78 218.909C638.658 218.909 632.435 220.851 627.111 224.736C621.859 228.549 617.758 234.125 614.808 241.464C611.858 248.802 610.383 257.687 610.383 268.119C610.383 278.695 611.822 287.688 614.7 295.099C617.65 302.509 621.787 308.157 627.111 312.042C632.435 315.927 638.658 317.869 645.78 317.869C651.032 317.869 655.745 316.79 659.918 314.632C664.162 312.473 667.652 309.344 670.386 305.243C673.192 301.07 675.026 296.07 675.889 290.242H719.272C718.553 302.905 715.1 314.056 708.912 323.697C702.797 333.266 694.343 340.748 683.552 346.144C672.76 351.54 659.99 354.238 645.241 354.238ZM798.707 354.477C786.956 354.477 776.484 352.439 767.291 348.362C758.098 344.205 750.823 338.09 745.468 330.016C740.192 321.862 737.554 311.71 737.554 299.559C737.554 289.327 739.432 280.734 743.189 273.779C746.946 266.824 752.062 261.228 758.538 256.992C765.013 252.755 772.367 249.557 780.601 247.399C788.914 245.241 797.628 243.722 806.741 242.842C817.453 241.723 826.086 240.684 832.641 239.725C839.196 238.686 843.952 237.167 846.91 235.168C849.868 233.17 851.347 230.212 851.347 226.295V225.576C851.347 217.981 848.949 212.106 844.152 207.949C839.436 203.792 832.721 201.714 824.008 201.714C814.815 201.714 807.5 203.752 802.064 207.829C796.628 211.826 793.031 216.862 791.273 222.938L744.029 219.101C746.427 207.909 751.143 198.237 758.178 190.083C765.212 181.849 774.286 175.534 785.397 171.137C796.589 166.661 809.539 164.422 824.247 164.422C834.48 164.422 844.272 165.621 853.625 168.02C863.058 170.418 871.411 174.135 878.686 179.171C886.04 184.207 891.836 190.682 896.073 198.596C900.309 206.43 902.428 215.823 902.428 226.775V351H853.985V325.459H852.546C849.588 331.215 845.631 336.291 840.675 340.688C835.719 345.005 829.763 348.402 822.809 350.88C815.854 353.278 807.82 354.477 798.707 354.477ZM813.336 319.224C820.85 319.224 827.485 317.745 833.241 314.788C838.996 311.75 843.513 307.673 846.79 302.557C850.068 297.441 851.706 291.645 851.706 285.17V265.625C850.108 266.664 847.909 267.624 845.112 268.503C842.394 269.302 839.316 270.062 835.879 270.781C832.441 271.421 829.004 272.02 825.566 272.58C822.129 273.059 819.011 273.499 816.214 273.899C810.218 274.778 804.982 276.177 800.506 278.096C796.029 280.014 792.552 282.612 790.073 285.89C787.595 289.087 786.356 293.084 786.356 297.881C786.356 304.835 788.874 310.151 793.911 313.828C799.027 317.426 805.502 319.224 813.336 319.224ZM939.541 351V143.798H995.253V179.95H997.412C1001.19 167.09 1007.53 157.378 1016.43 150.813C1025.34 144.158 1035.59 140.83 1047.19 140.83C1050.07 140.83 1053.17 141.01 1056.5 141.37C1059.82 141.73 1062.75 142.224 1065.26 142.854V193.845C1062.57 193.035 1058.83 192.316 1054.07 191.687C1049.3 191.057 1044.94 190.742 1040.98 190.742C1032.53 190.742 1024.98 192.586 1018.32 196.273C1011.76 199.87 1006.54 204.906 1002.67 211.381C998.895 217.857 997.007 225.321 997.007 233.774V351H939.541ZM1090.81 351V129.985H1152.1V351H1090.81ZM1121.6 101.494C1112.49 101.494 1104.67 98.4726 1098.15 92.4292C1091.72 86.2899 1088.5 78.9515 1088.5 70.414C1088.5 61.9725 1091.72 54.73 1098.15 48.6866C1104.67 42.5473 1112.49 39.4776 1121.6 39.4776C1130.71 39.4776 1138.48 42.5473 1144.91 48.6866C1151.43 54.73 1154.69 61.9725 1154.69 70.414C1154.69 78.9515 1151.43 86.2899 1144.91 92.4292C1138.48 98.4726 1130.71 101.494 1121.6 101.494ZM565.25 566V446.283H596.894V467.405H598.297C600.791 460.391 604.948 454.857 610.767 450.804C616.587 446.751 623.549 444.725 631.655 444.725C639.865 444.725 646.854 446.777 652.621 450.882C658.389 454.935 662.234 460.443 664.156 467.405H665.404C667.846 460.546 672.262 455.065 678.653 450.96C685.096 446.803 692.709 444.725 701.49 444.725C712.661 444.725 721.729 448.284 728.691 455.402C735.706 462.469 739.213 472.497 739.213 485.487V566H706.088V492.034C706.088 485.383 704.322 480.395 700.789 477.07C697.255 473.744 692.839 472.082 687.539 472.082C681.511 472.082 676.809 474.004 673.431 477.849C670.054 481.642 668.365 486.657 668.365 492.892V566H636.176V491.333C636.176 485.461 634.487 480.785 631.11 477.304C627.784 473.822 623.394 472.082 617.938 472.082C614.249 472.082 610.923 473.017 607.961 474.888C605.052 476.706 602.739 479.278 601.025 482.604C599.31 485.877 598.453 489.722 598.453 494.139V566H565.25ZM796.286 568.26C788.648 568.26 781.841 566.935 775.866 564.285C769.89 561.583 765.162 557.608 761.68 552.36C758.251 547.06 756.536 540.461 756.536 532.564C756.536 525.913 757.757 520.327 760.199 515.806C762.642 511.286 765.967 507.649 770.176 504.895C774.385 502.141 779.165 500.062 784.517 498.659C789.921 497.256 795.584 496.269 801.508 495.698C808.471 494.97 814.082 494.295 818.343 493.671C822.604 492.996 825.696 492.008 827.618 490.709C829.541 489.41 830.502 487.488 830.502 484.942V484.474C830.502 479.538 828.943 475.719 825.825 473.017C822.76 470.315 818.395 468.964 812.731 468.964C806.756 468.964 802.002 470.289 798.468 472.939C794.935 475.537 792.597 478.811 791.454 482.759L760.745 480.265C762.304 472.991 765.37 466.704 769.942 461.404C774.515 456.052 780.412 451.947 787.635 449.089C794.909 446.179 803.327 444.725 812.887 444.725C819.538 444.725 825.903 445.504 831.983 447.063C838.114 448.622 843.544 451.038 848.272 454.311C853.053 457.585 856.82 461.793 859.574 466.938C862.328 472.03 863.705 478.135 863.705 485.254V566H832.217V549.399H831.281C829.359 553.14 826.787 556.439 823.565 559.297C820.344 562.103 816.473 564.311 811.952 565.922C807.431 567.481 802.209 568.26 796.286 568.26ZM805.795 545.346C810.679 545.346 814.992 544.384 818.733 542.462C822.474 540.487 825.41 537.837 827.54 534.512C829.67 531.187 830.736 527.419 830.736 523.211V510.506C829.696 511.182 828.268 511.805 826.449 512.377C824.682 512.897 822.682 513.39 820.448 513.858C818.213 514.273 815.979 514.663 813.745 515.027C811.51 515.339 809.484 515.624 807.665 515.884C803.768 516.456 800.365 517.365 797.455 518.612C794.545 519.859 792.285 521.548 790.674 523.678C789.063 525.757 788.258 528.355 788.258 531.472C788.258 535.993 789.895 539.448 793.168 541.838C796.494 544.177 800.703 545.346 805.795 545.346ZM919.374 496.789V566H886.172V446.283H917.816V467.405H919.218C921.868 460.443 926.311 454.935 932.546 450.882C938.782 446.777 946.342 444.725 955.227 444.725C963.541 444.725 970.789 446.543 976.972 450.18C983.156 453.818 987.962 459.014 991.391 465.768C994.821 472.471 996.535 480.473 996.535 489.774V566H963.333V495.698C963.385 488.371 961.514 482.656 957.721 478.551C953.928 474.394 948.706 472.315 942.055 472.315C937.586 472.315 933.637 473.277 930.208 475.199C926.831 477.122 924.181 479.928 922.258 483.617C920.388 487.254 919.426 491.645 919.374 496.789ZM1019.41 566V446.283H1052.61V566H1019.41ZM1036.09 430.851C1031.15 430.851 1026.92 429.214 1023.39 425.941C1019.91 422.615 1018.16 418.64 1018.16 414.016C1018.16 409.443 1019.91 405.52 1023.39 402.247C1026.92 398.921 1031.15 397.259 1036.09 397.259C1041.03 397.259 1045.24 398.921 1048.72 402.247C1052.25 405.52 1054.02 409.443 1054.02 414.016C1054.02 418.64 1052.25 422.615 1048.72 425.941C1045.24 429.214 1041.03 430.851 1036.09 430.851ZM1175.53 480.421L1145.13 482.292C1144.61 479.694 1143.49 477.356 1141.78 475.277C1140.06 473.147 1137.8 471.458 1135 470.211C1132.24 468.912 1128.95 468.263 1125.1 468.263C1119.96 468.263 1115.62 469.354 1112.08 471.536C1108.55 473.666 1106.78 476.524 1106.78 480.11C1106.78 482.967 1107.93 485.383 1110.21 487.358C1112.5 489.332 1116.42 490.917 1121.98 492.112L1143.65 496.477C1155.29 498.867 1163.97 502.712 1169.68 508.012C1175.4 513.312 1178.26 520.275 1178.26 528.9C1178.26 536.746 1175.94 543.631 1171.32 549.555C1166.75 555.478 1160.46 560.102 1152.46 563.428C1144.51 566.701 1135.34 568.338 1124.94 568.338C1109.1 568.338 1096.47 565.039 1087.06 558.44C1077.71 551.789 1072.23 542.748 1070.62 531.316L1103.28 529.602C1104.26 534.434 1106.65 538.123 1110.45 540.669C1114.24 543.163 1119.1 544.41 1125.02 544.41C1130.84 544.41 1135.52 543.293 1139.05 541.059C1142.64 538.773 1144.46 535.837 1144.51 532.252C1144.46 529.238 1143.18 526.77 1140.69 524.847C1138.19 522.873 1134.35 521.366 1129.15 520.327L1108.42 516.196C1096.73 513.858 1088.03 509.805 1082.31 504.037C1076.65 498.27 1073.82 490.917 1073.82 481.98C1073.82 474.29 1075.89 467.665 1080.05 462.105C1084.26 456.545 1090.16 452.259 1097.74 449.245C1105.38 446.231 1114.32 444.725 1124.55 444.725C1139.67 444.725 1151.57 447.92 1160.25 454.311C1168.98 460.702 1174.07 469.406 1175.53 480.421Z" fill="white"/>
<rect x="380.845" y="544.59" width="107.734" height="280.635" rx="53.8671" transform="rotate(92.367 380.845 544.59)" fill="#F7CA2D"/>
<path d="M316.863 83.193C326.012 38.1224 371.307 10.1311 415.71 22.1086C460.275 34.1301 485.336 81.3826 470.29 125.02L398.778 332.423C387.603 364.832 353.243 383.055 320.145 374.127C286.918 365.164 266.375 331.922 273.222 298.195L316.863 83.193Z" fill="#FFD646"/>
<rect x="428.116" y="267.215" width="102.648" height="236.371" rx="51.3239" transform="rotate(26.9603 428.116 267.215)" fill="#FFD646"/>
<rect x="167.986" y="200.189" width="118.008" height="179.979" rx="59.0038" transform="rotate(-2.68887 167.986 200.189)" fill="#FFD646"/>
<rect x="50.9517" y="236.492" width="118.008" height="161.529" rx="59.0038" transform="rotate(-5.97125 50.9517 236.492)" fill="#FFD646"/>
<rect y="331.521" width="138.583" height="210.965" rx="69.2917" transform="rotate(-6.84648 0 331.521)" fill="#FFD646"/>
<mask id="mask0_556_1279" style="mask-type:alpha" maskUnits="userSpaceOnUse" x="7" y="322" width="148" height="212">
<rect y="331.521" width="138.583" height="210.965" rx="69.2917" transform="rotate(-6.84648 0 331.521)" fill="#FFD646"/>
</mask>
<g mask="url(#mask0_556_1279)">
<path d="M29.5 488.5C13.9413 448.056 11.1667 413.167 9.00005 381C1.66671 399.667 -11 447.3 -2.99995 488.5C5.00005 529.7 36 557.333 50.5 566L102 558C97 546.833 41.2893 519.145 29.5 488.5Z" fill="#F6CA2D"/>
</g>
<path d="M439.122 433.5C439.122 537.053 349.802 621 239.622 621C129.441 621 40.1216 537.053 40.1216 433.5C40.1216 329.947 129.441 246 239.622 246C349.802 246 439.122 329.947 439.122 433.5Z" fill="#FFD646"/>
<rect x="124" y="326.423" width="21.4522" height="102.511" rx="10.7261" transform="rotate(-6.48498 124 326.423)" fill="#F6CA2D"/>
<rect x="218.097" y="293" width="21.4522" height="116.904" rx="10.7261" transform="rotate(1.02778 218.097 293)" fill="#F6CA2D"/>
<rect x="314.19" y="318" width="21.4522" height="94.8572" rx="10.7261" transform="rotate(15.4002 314.19 318)" fill="#F6CA2D"/>
<rect x="562" y="621" width="616" height="20" fill="white"/>
</svg>
