<svg width="33" height="38" viewBox="0 0 33 38" fill="none" xmlns="http://www.w3.org/2000/svg">
<g clip-path="url(#clip0_153_10)">
<path d="M1.48263 17.3856C0.589774 18.2785 0.589774 19.7285 1.48263 20.6213L12.9112 32.0499C13.8041 32.9428 15.2541 32.9428 16.1469 32.0499C17.0398 31.1571 17.0398 29.7071 16.1469 28.8142L8.6112 21.2856H30.5255C31.7898 21.2856 32.8112 20.2642 32.8112 18.9999C32.8112 17.7356 31.7898 16.7142 30.5255 16.7142H8.61835L16.1398 9.18563C17.0326 8.29277 17.0326 6.84277 16.1398 5.94992C15.2469 5.05706 13.7969 5.05706 12.9041 5.94992L1.47549 17.3785L1.48263 17.3856Z" fill="white"/>
</g>
<defs>
<clipPath id="clip0_153_10">
<rect width="32" height="36.5714" fill="white" transform="translate(0.811035 0.713867)"/>
</clipPath>
</defs>
</svg>
