<svg width="32" height="32" viewBox="0 0 32 32" fill="none" xmlns="http://www.w3.org/2000/svg">
<g clip-path="url(#clip0_105_117)">
<circle cx="16" cy="16" r="16" fill="#F0F6FF"/>
<path d="M14.5999 6.40039H18.1999C18.6195 6.40018 19.026 6.54657 19.3491 6.81426C19.6722 7.08195 19.8917 7.45411 19.9695 7.86642C20.0474 8.27874 19.9788 8.7053 19.7755 9.07238C19.5722 9.43946 19.2471 9.72399 18.8563 9.87679C19.0015 10.4612 19.4287 10.904 20.0827 11.5484L20.0947 11.5604C20.5555 12.014 21.1015 12.5516 21.5791 13.268C22.1768 14.1754 22.4609 15.2535 22.3879 16.3376C22.3963 16.424 22.3999 16.5116 22.3999 16.6004V22.6004C22.3999 23.127 22.2613 23.6443 21.9979 24.1004C21.7346 24.5564 21.3559 24.9351 20.8999 25.1984C20.4438 25.4617 19.9265 25.6003 19.3999 25.6003C18.8733 25.6003 18.356 25.4617 17.8999 25.1984C17.4441 25.4623 16.9266 25.6009 16.3999 25.6004C15.8732 25.6009 15.3557 25.4623 14.8999 25.1984C14.4438 25.4617 13.9265 25.6003 13.3999 25.6003C12.8733 25.6003 12.356 25.4617 11.8999 25.1984C11.4439 24.9351 11.0652 24.5564 10.8019 24.1004C10.5385 23.6443 10.3999 23.127 10.3999 22.6004V16.6004C10.3999 16.5116 10.4035 16.424 10.4119 16.3364C10.4041 16.2246 10.4001 16.1125 10.3999 16.0004C10.3999 14.4044 11.1667 12.986 12.3559 12.0092C12.4915 11.8652 12.6247 11.7284 12.7495 11.5988L12.7519 11.5976C13.3915 10.9376 13.8091 10.4876 13.9483 9.87919C13.5563 9.72758 13.2297 9.44357 13.0252 9.07642C12.8206 8.70926 12.751 8.28211 12.8284 7.869C12.9058 7.4559 13.1253 7.08289 13.4488 6.81466C13.7724 6.54642 14.1796 6.39986 14.5999 6.40039ZM21.1999 20.8004V16.6004C21.1999 16.5344 21.1963 16.4708 21.1903 16.4072C21.186 16.3701 21.1852 16.3328 21.1879 16.2956C21.2533 15.4461 21.0296 14.5995 20.5531 13.8932C20.4863 13.7936 20.4167 13.696 20.3443 13.6004H12.4615C11.845 14.3576 11.5411 15.3217 11.6119 16.2956C11.615 16.3327 11.6146 16.3701 11.6107 16.4072C11.6037 16.4714 11.6001 16.5358 11.5999 16.6004V20.8004H21.1999ZM11.5999 22.0004V22.6004C11.6 22.9394 11.6958 23.2715 11.8763 23.5585C12.0568 23.8454 12.3147 24.0756 12.6203 24.2224C12.9259 24.3692 13.2667 24.4268 13.6036 24.3884C13.9404 24.3501 14.2596 24.2174 14.5243 24.0056C14.6308 23.9201 14.7633 23.8735 14.8999 23.8735C15.0365 23.8735 15.169 23.9201 15.2755 24.0056C15.5839 24.2528 15.9739 24.4004 16.3999 24.4004C16.8259 24.4004 17.2159 24.2528 17.5243 24.0056C17.6308 23.9201 17.7633 23.8735 17.8999 23.8735C18.0365 23.8735 18.169 23.9201 18.2755 24.0056C18.5402 24.2174 18.8594 24.3501 19.1962 24.3884C19.5331 24.4268 19.8739 24.3692 20.1795 24.2224C20.4851 24.0756 20.743 23.8454 20.9235 23.5585C21.104 23.2715 21.1998 22.9394 21.1999 22.6004V22.0004H11.5999ZM17.6551 10.0004H15.1471C14.9587 11.0468 14.2903 11.7356 13.6591 12.3848L13.6459 12.4004H19.2391L19.1887 12.3512C18.5479 11.7212 17.8531 11.0372 17.6551 10.0004ZM14.5999 8.80039H18.1999C18.359 8.80039 18.5116 8.73718 18.6242 8.62466C18.7367 8.51213 18.7999 8.35952 18.7999 8.20039C18.7999 8.04126 18.7367 7.88865 18.6242 7.77613C18.5116 7.66361 18.359 7.60039 18.1999 7.60039H14.5999C14.4408 7.60039 14.2882 7.66361 14.1756 7.77613C14.0631 7.88865 13.9999 8.04126 13.9999 8.20039C13.9999 8.35952 14.0631 8.51213 14.1756 8.62466C14.2882 8.73718 14.4408 8.80039 14.5999 8.80039Z" fill="#017FFA"/>
</g>
<defs>
<clipPath id="clip0_105_117">
<rect width="32" height="32" fill="white"/>
</clipPath>
</defs>
</svg>
