<svg width="16" height="16" viewBox="0 0 16 16" fill="none" xmlns="http://www.w3.org/2000/svg">
<path d="M9.99375 8.93089C10.012 8.73281 10.1082 8.55008 10.2611 8.42291C10.4141 8.29574 10.6113 8.23454 10.8094 8.25277C11.0075 8.271 11.1902 8.36718 11.3174 8.52014C11.4445 8.6731 11.5057 8.87031 11.4875 9.06839C11.4164 9.82816 11.0998 10.5441 10.5856 11.1079C10.0714 11.6718 9.38752 12.0528 8.6375 12.1934L8.5 12.2059C8.32434 12.2045 8.15466 12.1419 8.02008 12.029C7.88551 11.9161 7.79443 11.7599 7.7625 11.5871C7.74447 11.4907 7.74571 11.3916 7.76615 11.2956C7.78659 11.1996 7.82583 11.1086 7.88161 11.0278C7.93738 10.9471 8.00859 10.8782 8.09113 10.8251C8.17366 10.7719 8.26589 10.7357 8.3625 10.7184C8.79191 10.6386 9.18356 10.4209 9.47797 10.0983C9.77238 9.77567 9.95348 9.36579 9.99375 8.93089ZM14 8.74964C14 10.3409 13.3679 11.8671 12.2426 12.9923C11.1174 14.1175 9.5913 14.7496 8 14.7496C6.4087 14.7496 4.88258 14.1175 3.75736 12.9923C2.63214 11.8671 2 10.3409 2 8.74964C2 7.25589 2.63125 5.54964 3.875 3.66839C3.98674 3.50347 4.15904 3.3893 4.35447 3.35069C4.5499 3.31207 4.75268 3.35212 4.91875 3.46214L6.69375 4.64339L8.5 0.855893C8.55075 0.746771 8.62722 0.651594 8.72285 0.578532C8.81848 0.505469 8.93041 0.456704 9.04903 0.436421C9.16766 0.416138 9.28943 0.424943 9.4039 0.462082C9.51838 0.49922 9.62213 0.563582 9.70625 0.649643C10.6375 1.58089 11.7 2.70589 12.5312 4.03089C13.5188 5.59964 14 7.14339 14 8.74964ZM12.5 8.74964C12.5 6.29339 11.0813 4.28089 9.3875 2.47464L7.675 6.07464C7.62862 6.17171 7.5619 6.25766 7.47936 6.32667C7.39683 6.39567 7.30042 6.44611 7.19668 6.47457C7.09293 6.50303 6.98428 6.50883 6.87809 6.49159C6.7719 6.47435 6.67066 6.43446 6.58125 6.37464L4.725 5.13714C3.9125 6.49964 3.5 7.71214 3.5 8.74964C3.5 9.94312 3.97411 11.0877 4.81802 11.9316C5.66193 12.7755 6.80653 13.2496 8 13.2496C9.19347 13.2496 10.3381 12.7755 11.182 11.9316C12.0259 11.0877 12.5 9.94312 12.5 8.74964Z" fill="#222222"/>
</svg>
