<svg width="32" height="32" viewBox="0 0 32 32" fill="none" xmlns="http://www.w3.org/2000/svg">
<g clip-path="url(#clip0_105_140)">
<circle cx="16" cy="16" r="16" fill="#F0F6FF"/>
<path d="M14.2487 7.27851C15.2142 6.90716 16.283 6.90716 17.2485 7.27851L24.1589 9.93571C24.5528 10.0874 24.8916 10.3549 25.1305 10.703C25.3694 11.051 25.4973 11.4633 25.4972 11.8854V21.1132C25.4973 21.5353 25.3694 21.9476 25.1305 22.2957C24.8916 22.6437 24.5528 22.9112 24.1589 23.0629L17.2485 25.7215C16.283 26.0928 15.2142 26.0928 14.2487 25.7215L7.33974 23.0629C6.94551 22.9114 6.60646 22.644 6.36729 22.296C6.12811 21.9479 6.00006 21.5355 6 21.1132V11.8854C6.00006 11.4631 6.12811 11.0507 6.36729 10.7026C6.60646 10.3546 6.94551 10.0872 7.33974 9.93571L14.2487 7.27851ZM16.7485 8.57786C16.1049 8.3303 15.3923 8.3303 14.7487 8.57786L12.8212 9.32015L20.6062 12.267L23.3191 11.1055L16.7485 8.57647V8.57786ZM24.1046 12.2823L16.4449 15.5676V24.5196C16.548 24.4932 16.6483 24.4611 16.7485 24.4221L23.6589 21.7649C23.7902 21.7143 23.9031 21.625 23.9826 21.5089C24.0622 21.3928 24.1047 21.2553 24.1046 21.1146V12.2851V12.2823ZM15.0523 24.5182V15.5676L7.39266 12.2837V21.1132C7.39251 21.2539 7.43502 21.3914 7.51457 21.5075C7.59413 21.6236 7.707 21.7129 7.83831 21.7636L14.7487 24.4207C14.8489 24.4597 14.9492 24.4918 15.0523 24.5182ZM8.17812 11.1055L15.7486 14.3504L18.7623 13.058L10.8701 10.0694L8.17812 11.1055Z" fill="#017FFA"/>
</g>
<defs>
<clipPath id="clip0_105_140">
<rect width="32" height="32" fill="white"/>
</clipPath>
</defs>
</svg>
