<svg width="32" height="32" viewBox="0 0 32 32" fill="none" xmlns="http://www.w3.org/2000/svg">
<path d="M13.7029 21.2134L14 20.8866V19.275L9.13281 9H6.86719L2 19.275V20.9651L2.26462 21.2523C2.99143 22.0393 3.87309 22.6675 4.85425 23.0975C5.83541 23.5276 6.89487 23.7501 7.96613 23.7512H7.99237C9.06804 23.7464 10.131 23.5184 11.114 23.0816C12.097 22.6447 12.9785 22.0086 13.7029 21.2134ZM12 20.1005C10.933 21.1603 9.48943 21.7539 7.98556 21.7513H7.96494C6.48753 21.7587 5.06535 21.1903 4 20.1667V19.725L8 11.2805L12 19.725V20.1005Z" fill="#1F2937"/>
<path d="M29.7029 26.2134L30 25.8866V24.275L25.1328 14H22.8672L18 24.275V25.9651L18.2646 26.2523C18.9914 27.0393 19.8731 27.6675 20.8542 28.0975C21.8354 28.5276 22.8949 28.7501 23.9661 28.7512H23.9924C25.068 28.7464 26.131 28.5184 27.114 28.0816C28.097 27.6447 28.9785 27.0086 29.7029 26.2134ZM28 25.1005C26.933 26.1603 25.4894 26.7539 23.9856 26.7513H23.9649C22.4875 26.7587 21.0654 26.1903 20 25.1667V24.725L24 16.2805L28 24.725V25.1005Z" fill="#1F2937"/>
<path d="M16.4424 13.0094C16.4424 13.0094 17.5974 12.8853 18.1137 12.6191C18.63 12.3528 19.0722 11.9627 19.4008 11.4837L25.7317 13.5066L26.3405 11.6015L20.0095 9.57862C20.0243 8.82508 19.7954 8.0869 19.3569 7.4739C18.9185 6.86091 18.2938 6.40586 17.5758 6.17647C16.8579 5.94707 16.0851 5.95559 15.3724 6.20075C14.6597 6.44591 14.0452 6.91462 13.6204 7.53712L7.28937 5.51422L6.68064 7.41933L13.0116 9.44224C13.0016 10.023 13.1357 10.5973 13.4019 11.1135C13.6682 11.6298 14.5373 12.4006 14.5373 12.4006C14.5373 12.4006 15.0693 12.7242 15.4453 12.8444C15.8212 12.9645 16.4424 13.0094 16.4424 13.0094ZM15.0817 9.05388C15.172 8.77128 15.3441 8.52181 15.5762 8.337C15.8083 8.1522 16.0899 8.04037 16.3856 8.01564C16.6812 7.99092 16.9775 8.05442 17.2371 8.19812C17.4966 8.34181 17.7078 8.55924 17.8437 8.82292C17.9797 9.08659 18.0344 9.38467 18.001 9.67945C17.9676 9.97423 17.8475 10.2525 17.6559 10.479C17.4643 10.7055 17.2099 10.8702 16.9248 10.9521C16.6396 11.034 16.3366 11.0296 16.054 10.9393C15.6751 10.8182 15.3597 10.5515 15.1774 10.1979C14.9951 9.84436 14.9606 9.43283 15.0817 9.05388Z" fill="#1F2937"/>
<line x1="16.75" y1="3" x2="16.75" y2="8" stroke="#1F2937" stroke-width="1.5"/>
</svg>
