<svg width="109" height="128" viewBox="0 0 109 128" fill="none" xmlns="http://www.w3.org/2000/svg">
<g clip-path="url(#clip0_105_87)">
<path d="M32.7339 58.7557L65.3719 45.1056C65.6867 44.974 66.0409 44.9727 66.3566 45.1022C66.6723 45.2317 66.9236 45.4813 67.0553 45.7961L67.9761 47.9979L32.9622 62.6416L32.0413 60.4399C31.9761 60.2838 31.9422 60.1165 31.9417 59.9473C31.9412 59.7782 31.9741 59.6106 32.0384 59.4542C32.1027 59.2977 32.1972 59.1555 32.3166 59.0357C32.4359 58.9158 32.5777 58.8207 32.7339 58.7557Z" fill="#0099F5"/>
<path d="M84.3537 96.1711L55.971 108.041L33.6938 63.7725L68.4816 49.2233L84.3537 96.1711Z" fill="#9C5631"/>
<path d="M40.3737 60.9809L52.5976 81.1165C55.6291 86.1159 62.5477 87.9093 68.7567 85.3126C73.3163 83.4056 76.5965 79.4798 76.6504 75.3182L76.861 73.9885L84.3533 96.1711L55.9707 108.041L33.6943 63.7744L40.3737 60.9809Z" fill="#C18063"/>
<path d="M68.2332 47.8835L32.959 62.6361C31.9342 63.0647 31.4509 64.2428 31.8795 65.2676L31.8804 65.2696C32.3089 66.2943 33.4871 66.7776 34.5119 66.3491L69.786 51.5965C70.8108 51.1679 71.2941 49.9898 70.8655 48.965L70.8647 48.963C70.4361 47.9383 69.2579 47.455 68.2332 47.8835Z" fill="#24285B"/>
<path d="M64.2598 14.8951L11.9801 36.7598C11.2628 37.0604 10.694 37.6335 10.3989 38.3531C10.1037 39.0727 10.1061 39.88 10.4057 40.5978L15.5959 53.0077C15.8965 53.725 16.4695 54.2937 17.1891 54.5889C17.9087 54.8841 18.716 54.8816 19.4338 54.582L43.9734 44.319L47.6776 46.85C47.7302 46.8876 47.7913 46.9115 47.8555 46.9195C47.9197 46.9275 47.9849 46.9194 48.0451 46.8959C48.1053 46.8723 48.1587 46.8341 48.2004 46.7847C48.2421 46.7352 48.2708 46.6762 48.2839 46.6128L49.3397 42.0746L71.7136 32.7173C72.4313 32.4171 73.0004 31.8442 73.2956 31.1244C73.5909 30.4046 73.5881 29.5971 73.2879 28.8794L68.0978 16.4695C67.7976 15.7517 67.2246 15.1827 66.5049 14.8874C65.7851 14.5922 64.9776 14.5949 64.2598 14.8951V14.8951Z" fill="#F2F2F2"/>
<path d="M17.2064 53.5967C16.8644 53.7411 16.4981 53.8192 16.127 53.8271C16.5347 54.2759 17.0713 54.5874 17.6632 54.7188C18.255 54.8503 18.8731 54.7952 19.4324 54.5613L43.966 44.3007L42.2351 43.1197L17.2064 53.5967Z" fill="#E2E2E2"/>
<path d="M65.3395 14.6648C65.5611 14.9116 65.7396 15.1939 65.8675 15.4999L71.0526 27.8978C71.2014 28.253 71.2788 28.634 71.2804 29.0191C71.2819 29.4042 71.2075 29.7859 71.0615 30.1422C70.9155 30.4985 70.7007 30.8226 70.4293 31.0959C70.158 31.3692 69.8355 31.5863 69.4802 31.7349L47.1003 41.0948L46.0446 45.633C46.0398 45.6546 46.0328 45.6756 46.0238 45.6958L47.6896 46.8334C47.7417 46.8688 47.8017 46.891 47.8643 46.898C47.9269 46.9051 47.9903 46.8968 48.049 46.8739C48.1077 46.8509 48.16 46.8141 48.2012 46.7664C48.2425 46.7188 48.2716 46.6618 48.2859 46.6005L49.3416 42.0623L71.7275 32.6999C72.4452 32.3998 73.0143 31.8268 73.3096 31.107C73.6048 30.3873 73.6021 29.5797 73.3019 28.862L68.1118 16.4521C67.8819 15.9107 67.4947 15.4509 67.0004 15.1322C66.5061 14.8136 65.9274 14.6507 65.3395 14.6648V14.6648Z" fill="#E2E2E2"/>
<path d="M18.7306 39.1293L20.4683 40.6414C20.5172 40.684 20.5757 40.7139 20.6388 40.7285C20.7019 40.7431 20.7677 40.742 20.8303 40.7252L23.062 40.1516C23.1343 40.1342 23.21 40.1371 23.2807 40.1602C23.3514 40.1832 23.4143 40.2254 23.4624 40.2821C23.5105 40.3388 23.5419 40.4078 23.5531 40.4813C23.5643 40.5548 23.5549 40.63 23.5259 40.6984L22.625 42.8178C22.599 42.8773 22.5882 42.9423 22.5935 43.007C22.5988 43.0716 22.62 43.134 22.6553 43.1884L23.8901 45.1343C23.9327 45.1972 23.9565 45.271 23.9589 45.3469C23.9612 45.4229 23.9419 45.4979 23.9033 45.5634C23.8646 45.6288 23.8082 45.6819 23.7405 45.7166C23.6729 45.7512 23.5968 45.7659 23.5211 45.7589L21.226 45.557C21.1616 45.5505 21.0965 45.5601 21.0367 45.5851C20.9769 45.6101 20.9243 45.6497 20.8838 45.7002L19.4158 47.4759C19.3676 47.5346 19.3037 47.5785 19.2315 47.6023C19.1594 47.6262 19.0819 47.6291 19.0082 47.6106C18.9345 47.5922 18.8675 47.5532 18.815 47.4982C18.7626 47.4432 18.7268 47.3744 18.7119 47.2999L18.1938 45.0544C18.1818 44.9904 18.1542 44.9304 18.1133 44.8798C18.0724 44.8291 18.0196 44.7895 17.9596 44.7643L15.818 43.9173C15.7489 43.8899 15.6888 43.8438 15.6443 43.7842C15.5999 43.7246 15.5728 43.6539 15.5662 43.5798C15.5596 43.5057 15.5738 43.4313 15.607 43.3648C15.6403 43.2983 15.6913 43.2423 15.7545 43.2031L17.7301 42.0171C17.786 41.9843 17.833 41.9383 17.8669 41.8831C17.9008 41.8279 17.9207 41.7652 17.9246 41.7005L18.0684 39.4016C18.0743 39.3276 18.1005 39.2568 18.1442 39.1969C18.1879 39.1369 18.2473 39.0903 18.3159 39.0621C18.3845 39.0339 18.4596 39.0253 18.5328 39.0371C18.606 39.049 18.6745 39.0809 18.7306 39.1293V39.1293Z" fill="#FFD44D"/>
<path d="M23.5309 40.6984C23.5599 40.6299 23.5693 40.5547 23.5581 40.4812C23.5469 40.4077 23.5155 40.3388 23.4674 40.2821C23.4193 40.2254 23.3564 40.1832 23.2857 40.1601C23.215 40.1371 23.1393 40.1341 23.067 40.1516L22.0525 40.4136L21.4248 41.8873C21.3996 41.9469 21.3892 42.0118 21.3944 42.0763C21.3997 42.1409 21.4206 42.2032 21.4551 42.2579L22.6854 44.1986C22.7257 44.2616 22.7476 44.3347 22.7484 44.4096C22.7492 44.4844 22.7289 44.558 22.6899 44.6218C22.6509 44.6857 22.5947 44.7373 22.5278 44.7708C22.4609 44.8043 22.3859 44.8183 22.3113 44.8112L20.0123 44.611C19.9476 44.6057 19.8825 44.616 19.8226 44.6411C19.7627 44.6661 19.7097 44.7052 19.668 44.755L18.4615 46.2167L18.7079 47.2895C18.7228 47.3641 18.7586 47.4328 18.811 47.4878C18.8635 47.5428 18.9304 47.5818 19.0042 47.6003C19.0779 47.6187 19.1553 47.6158 19.2275 47.592C19.2997 47.5681 19.3636 47.5242 19.4118 47.4655L20.8797 45.6898C20.9211 45.6402 20.9738 45.6012 21.0333 45.5763C21.0929 45.5514 21.1577 45.5412 21.222 45.5467L23.5171 45.7486C23.5927 45.7555 23.6688 45.7408 23.7365 45.7062C23.8041 45.6716 23.8606 45.6184 23.8992 45.553C23.9379 45.4876 23.9572 45.4125 23.9548 45.3365C23.9525 45.2606 23.9287 45.1868 23.8861 45.1239L22.6521 43.1801C22.6167 43.1257 22.5953 43.0633 22.59 42.9986C22.5847 42.9339 22.5956 42.8689 22.6218 42.8094L23.5309 40.6984Z" fill="#F9BB0D"/>
<path d="M29.4955 34.627L31.2332 36.1391C31.2822 36.1813 31.3408 36.2111 31.4038 36.2257C31.4669 36.2403 31.5325 36.2393 31.5951 36.2229L33.8249 35.6502C33.8972 35.6327 33.9729 35.6356 34.0436 35.6587C34.1143 35.6817 34.1772 35.7239 34.2253 35.7806C34.2734 35.8373 34.3048 35.9063 34.316 35.9798C34.3272 36.0533 34.3178 36.1285 34.2888 36.1969L33.3902 38.3107C33.365 38.3703 33.3546 38.4352 33.3599 38.4997C33.3651 38.5642 33.386 38.6265 33.4205 38.6813L34.6573 40.6263C34.6977 40.6893 34.7195 40.7624 34.7203 40.8373C34.7211 40.9121 34.7008 40.9857 34.6618 41.0495C34.6228 41.1134 34.5666 41.1651 34.4997 41.1985C34.4328 41.232 34.3578 41.246 34.2833 41.2389L31.9882 41.037C31.9235 41.0317 31.8585 41.0421 31.7986 41.0671C31.7386 41.0922 31.6856 41.1312 31.644 41.181L30.176 42.9567C30.1285 43.0142 30.066 43.0572 29.9953 43.0809C29.9247 43.1046 29.8488 43.1081 29.7763 43.091C29.7038 43.0738 29.6376 43.0367 29.5851 42.9839C29.5325 42.931 29.4959 42.8645 29.4792 42.7919L28.961 40.5464C28.9466 40.4832 28.917 40.4244 28.8748 40.3753C28.8325 40.3262 28.7788 40.2881 28.7184 40.2645L26.5769 39.4175C26.5078 39.3901 26.4477 39.344 26.4032 39.2844C26.3587 39.2248 26.3317 39.1541 26.3251 39.08C26.3185 39.0059 26.3326 38.9315 26.3659 38.865C26.3991 38.7985 26.4502 38.7425 26.5134 38.7033L28.489 37.5173C28.5446 37.4842 28.5914 37.4381 28.6253 37.383C28.6592 37.3279 28.6792 37.2653 28.6835 37.2007L28.8273 34.9018C28.8319 34.8265 28.8576 34.7541 28.9015 34.6927C28.9453 34.6314 29.0056 34.5836 29.0753 34.555C29.145 34.5263 29.2215 34.5178 29.2958 34.5306C29.3701 34.5433 29.4393 34.5767 29.4955 34.627V34.627Z" fill="#FFD44D"/>
<path d="M34.2955 36.1969C34.3245 36.1284 34.334 36.0533 34.3228 35.9797C34.3116 35.9062 34.2801 35.8373 34.232 35.7806C34.1839 35.7239 34.121 35.6817 34.0503 35.6586C33.9796 35.6356 33.9039 35.6326 33.8317 35.6501L32.8171 35.9121L32.1914 37.385C32.1662 37.4446 32.1558 37.5095 32.1611 37.574C32.1664 37.6385 32.1872 37.7008 32.2218 37.7556L33.4585 39.7006C33.5007 39.7641 33.524 39.8383 33.5255 39.9146C33.5271 39.9909 33.5068 40.066 33.4672 40.1312C33.4276 40.1963 33.3702 40.2489 33.3018 40.2826C33.2334 40.3164 33.1568 40.33 33.081 40.3217L30.7809 40.1078C30.7162 40.1025 30.6512 40.1128 30.5913 40.1379C30.5314 40.163 30.4783 40.202 30.4367 40.2518L29.2293 41.7116L29.4757 42.7844C29.49 42.859 29.5253 42.9281 29.5775 42.9834C29.6297 43.0386 29.6966 43.0779 29.7703 43.0965C29.844 43.115 29.9215 43.1122 29.9937 43.0882C30.0658 43.0642 30.1296 43.0202 30.1776 42.9612L31.6455 41.1855C31.6865 41.1348 31.7394 41.0951 31.7995 41.07C31.8596 41.0449 31.925 41.0351 31.9898 41.0415L34.2849 41.2434C34.3605 41.2503 34.4366 41.2356 34.5043 41.201C34.5719 41.1664 34.6284 41.1133 34.667 41.0478C34.7057 40.9824 34.725 40.9073 34.7226 40.8314C34.7203 40.7554 34.6965 40.6817 34.6539 40.6187L33.4179 38.6757C33.3834 38.6206 33.3626 38.558 33.3571 38.4932C33.3517 38.4284 33.3619 38.3632 33.3867 38.3031L34.2955 36.1969Z" fill="#F9BB0D"/>
<path d="M40.26 30.1255L41.9957 31.6384C42.045 31.6802 42.1036 31.7096 42.1665 31.7242C42.2295 31.7387 42.295 31.7381 42.3576 31.7222L44.5894 31.1486C44.6617 31.1312 44.7374 31.1341 44.8081 31.1572C44.8788 31.1802 44.9417 31.2224 44.9898 31.2791C45.0379 31.3358 45.0693 31.4048 45.0805 31.4783C45.0917 31.5518 45.0823 31.627 45.0533 31.6954L44.1547 33.8091C44.1295 33.8688 44.1191 33.9336 44.1244 33.9982C44.1296 34.0627 44.1505 34.125 44.185 34.1798L45.4218 36.1248C45.4613 36.1879 45.4824 36.2609 45.4828 36.3354C45.4832 36.4099 45.4628 36.483 45.424 36.5466C45.3852 36.6102 45.3294 36.6617 45.263 36.6954C45.1965 36.7291 45.122 36.7437 45.0478 36.7374L42.7527 36.5355C42.688 36.5302 42.623 36.5405 42.5631 36.5656C42.5031 36.5906 42.4501 36.6297 42.4085 36.6795L40.9405 38.4552C40.8928 38.5124 40.8301 38.5553 40.7595 38.5789C40.6888 38.6025 40.613 38.606 40.5404 38.589C40.4679 38.572 40.4015 38.5351 40.3488 38.4825C40.296 38.43 40.2589 38.3637 40.2417 38.2912L39.7255 36.0449C39.7108 35.9818 39.6811 35.9232 39.6388 35.8741C39.5966 35.8251 39.5431 35.7869 39.4829 35.763L37.3394 34.9168C37.2703 34.8894 37.2102 34.8434 37.1657 34.7838C37.1212 34.7242 37.0942 34.6534 37.0876 34.5793C37.081 34.5052 37.0951 34.4308 37.1284 34.3643C37.1616 34.2978 37.2127 34.2418 37.2759 34.2026L39.2515 33.0166C39.3068 32.9831 39.3533 32.9369 39.3871 32.8819C39.4209 32.8268 39.4411 32.7645 39.446 32.7001L39.5878 30.4019C39.5915 30.3258 39.6168 30.2522 39.6608 30.1899C39.7047 30.1276 39.7655 30.0791 39.8361 30.0501C39.9066 30.0211 39.9839 30.0128 40.059 30.0261C40.1341 30.0395 40.2038 30.0739 40.26 30.1255Z" fill="#FFD44D"/>
<path d="M45.0596 31.6953C45.0887 31.6269 45.0981 31.5517 45.0869 31.4782C45.0757 31.4047 45.0443 31.3357 44.9962 31.279C44.9481 31.2223 44.8852 31.1801 44.8145 31.157C44.7438 31.134 44.6681 31.1311 44.5958 31.1485L43.5813 31.4106L42.9547 32.8814C42.9295 32.9414 42.9191 33.0066 42.9245 33.0715C42.93 33.1364 42.951 33.199 42.9859 33.254L44.2121 35.1963C44.2547 35.2593 44.2786 35.333 44.2809 35.409C44.2832 35.4849 44.264 35.56 44.2253 35.6255C44.1867 35.6909 44.1302 35.744 44.0626 35.7786C43.9949 35.8132 43.9188 35.8279 43.8431 35.821L41.5451 35.6063C41.4804 35.601 41.4153 35.6113 41.3554 35.6363C41.2955 35.6614 41.2425 35.7005 41.2008 35.7503L39.9934 37.21L40.2379 38.2836C40.2527 38.3581 40.2885 38.4269 40.3409 38.4819C40.3934 38.5369 40.4604 38.5759 40.5341 38.5943C40.6078 38.6128 40.6853 38.6099 40.7574 38.586C40.8296 38.5622 40.8935 38.5183 40.9417 38.4596L42.4097 36.6839C42.4506 36.6332 42.5035 36.5935 42.5636 36.5684C42.6237 36.5433 42.6891 36.5335 42.7539 36.5399L45.049 36.7418C45.1247 36.7488 45.2008 36.7341 45.2684 36.6994C45.3361 36.6648 45.3925 36.6117 45.4312 36.5463C45.4698 36.4808 45.4891 36.4058 45.4868 36.3298C45.4844 36.2538 45.4606 36.1801 45.418 36.1172L44.1821 34.1742C44.1475 34.119 44.1267 34.0565 44.1213 33.9916C44.1158 33.9268 44.126 33.8616 44.1509 33.8015L45.0596 31.6953Z" fill="#F9BB0D"/>
<path d="M51.0223 25.6238L52.76 27.1359C52.8093 27.1777 52.8679 27.2071 52.9308 27.2217C52.9938 27.2362 53.0593 27.2356 53.122 27.2197L55.3537 26.6461C55.426 26.6286 55.5017 26.6316 55.5724 26.6546C55.6431 26.6777 55.706 26.7199 55.7541 26.7766C55.8022 26.8333 55.8336 26.9023 55.8448 26.9758C55.856 27.0493 55.8466 27.1245 55.8176 27.1929L54.9167 29.3123C54.8911 29.3719 54.8805 29.4368 54.8858 29.5014C54.8911 29.566 54.9121 29.6283 54.947 29.6829L56.1818 31.6288C56.2213 31.6919 56.2424 31.7649 56.2428 31.8394C56.2432 31.9139 56.2228 31.987 56.184 32.0506C56.1452 32.1142 56.0894 32.1657 56.023 32.1994C55.9565 32.2331 55.882 32.2477 55.8077 32.2414L53.5147 32.0387C53.45 32.0334 53.3849 32.0437 53.325 32.0688C53.2651 32.0938 53.2121 32.1329 53.1704 32.1827L51.7025 33.9584C51.6548 34.0156 51.5921 34.0584 51.5214 34.0821C51.4508 34.1057 51.375 34.1092 51.3024 34.0922C51.2299 34.0752 51.1635 34.0383 51.1108 33.9857C51.058 33.9331 51.0209 33.8669 51.0036 33.7944L50.4875 31.548C50.4728 31.485 50.443 31.4264 50.4008 31.3773C50.3586 31.3282 50.3051 31.2901 50.2449 31.2661L48.1014 30.42C48.0323 30.3926 47.9721 30.3465 47.9277 30.2869C47.8832 30.2273 47.8562 30.1565 47.8496 30.0825C47.843 30.0084 47.8571 29.934 47.8904 29.8675C47.9236 29.801 47.9747 29.745 48.0379 29.7058L50.0115 28.5206C50.0668 28.4871 50.1133 28.4409 50.1471 28.3859C50.1809 28.3308 50.2011 28.2685 50.206 28.2041L50.3498 25.9051C50.3526 25.8284 50.3772 25.7542 50.4209 25.6911C50.4645 25.628 50.5253 25.5788 50.5961 25.5492C50.6668 25.5196 50.7446 25.5109 50.8201 25.5241C50.8957 25.5374 50.9658 25.572 51.0223 25.6238V25.6238Z" fill="#FFD44D"/>
<path d="M55.8228 27.1932C55.8518 27.1248 55.8612 27.0496 55.85 26.9761C55.8388 26.9026 55.8074 26.8336 55.7593 26.7769C55.7112 26.7202 55.6483 26.678 55.5776 26.655C55.5069 26.6319 55.4312 26.629 55.3589 26.6464L54.3444 26.9085L53.7187 28.3813C53.6925 28.4407 53.6816 28.5057 53.6869 28.5704C53.6922 28.6352 53.7136 28.6975 53.749 28.7519L54.9773 30.6934C55.0199 30.7564 55.0437 30.8301 55.046 30.9061C55.0484 30.982 55.0291 31.0571 54.9904 31.1225C54.9518 31.188 54.8954 31.2411 54.8277 31.2757C54.76 31.3103 54.6839 31.325 54.6083 31.3181L52.3132 31.1162C52.2489 31.1107 52.1841 31.1209 52.1246 31.1458C52.065 31.1708 52.0123 31.2097 51.971 31.2593L50.7636 32.7191L51.008 33.7927C51.0229 33.8672 51.0587 33.936 51.1111 33.991C51.1635 34.046 51.2305 34.085 51.3042 34.1034C51.378 34.1219 51.4554 34.119 51.5276 34.0951C51.5997 34.0713 51.6636 34.0274 51.7119 33.9687L53.1798 32.193C53.2208 32.1423 53.2737 32.1026 53.3338 32.0775C53.3939 32.0524 53.4593 32.0426 53.5241 32.049L55.8191 32.2509C55.8948 32.2582 55.971 32.2437 56.0387 32.2092C56.1065 32.1746 56.1629 32.1215 56.2015 32.056C56.24 31.9904 56.2591 31.9153 56.2563 31.8393C56.2536 31.7633 56.2293 31.6897 56.1861 31.6271L54.9522 29.6832C54.9174 29.6283 54.8963 29.5657 54.8909 29.5008C54.8854 29.4359 54.8958 29.3706 54.921 29.3106L55.8228 27.1932Z" fill="#F9BB0D"/>
<path d="M61.787 21.1222L63.5247 22.6342C63.574 22.676 63.6326 22.7054 63.6955 22.72C63.7585 22.7346 63.824 22.7339 63.8866 22.718L66.1172 22.1473C66.1893 22.1294 66.265 22.132 66.3357 22.1548C66.4065 22.1776 66.4694 22.2196 66.5175 22.2762C66.5657 22.3329 66.597 22.4018 66.6081 22.4752C66.6192 22.5487 66.6095 22.6238 66.5802 22.6921L65.6802 24.8135C65.654 24.8729 65.6431 24.9379 65.6484 25.0027C65.6537 25.0674 65.6751 25.1297 65.7105 25.1841L66.9453 27.13C66.9848 27.1931 67.0059 27.2661 67.0063 27.3406C67.0067 27.4151 66.9863 27.4882 66.9475 27.5518C66.9087 27.6154 66.8529 27.6669 66.7865 27.7006C66.72 27.7343 66.6455 27.7489 66.5713 27.7426L64.2762 27.5407C64.2119 27.5353 64.1471 27.5454 64.0876 27.5704C64.028 27.5953 63.9753 27.6342 63.9339 27.6839L62.466 29.4595C62.4183 29.5168 62.3556 29.5596 62.285 29.5833C62.2143 29.6069 62.1385 29.6104 62.0659 29.5934C61.9934 29.5764 61.927 29.5395 61.8743 29.4869C61.8215 29.4343 61.7844 29.3681 61.7672 29.2956L61.249 27.0501C61.2352 26.9866 61.2058 26.9276 61.1634 26.8784C61.1211 26.8292 61.0671 26.7913 61.0064 26.7682L58.8641 25.9192C58.7949 25.8921 58.7347 25.8462 58.6901 25.7867C58.6456 25.7273 58.6186 25.6565 58.6121 25.5825C58.6055 25.5085 58.6198 25.4341 58.6533 25.3678C58.6867 25.3015 58.738 25.2458 58.8014 25.207L60.785 24.0176C60.8403 23.9841 60.8868 23.9379 60.9206 23.8829C60.9544 23.8278 60.9746 23.7655 60.9795 23.7011L61.1233 21.4021C61.1277 21.3272 61.1529 21.2551 61.1962 21.1938C61.2394 21.1326 61.2989 21.0847 61.368 21.0555C61.4371 21.0264 61.513 21.0172 61.587 21.029C61.6611 21.0408 61.7304 21.073 61.787 21.1222V21.1222Z" fill="#E2E2E2"/>
<path d="M66.581 22.6939C66.61 22.6255 66.6194 22.5503 66.6082 22.4768C66.597 22.4033 66.5656 22.3343 66.5175 22.2776C66.4694 22.2209 66.4065 22.1787 66.3358 22.1556C66.2651 22.1326 66.1894 22.1297 66.1171 22.1471L65.1026 22.4092L64.474 23.8808C64.4491 23.9409 64.439 24.0061 64.4444 24.0709C64.4498 24.1357 64.4707 24.1983 64.5052 24.2534L65.7412 26.1964C65.7838 26.2594 65.8076 26.3331 65.8099 26.4091C65.8123 26.485 65.793 26.5601 65.7543 26.6255C65.7157 26.691 65.6592 26.7441 65.5916 26.7787C65.5239 26.8133 65.4478 26.828 65.3721 26.8211L63.0771 26.6192C63.0124 26.6139 62.9473 26.6242 62.8874 26.6493C62.8275 26.6743 62.7745 26.7134 62.7328 26.7632L61.5255 28.2229L61.7719 29.2957C61.7868 29.3703 61.8225 29.439 61.875 29.494C61.9274 29.549 61.9944 29.588 62.0681 29.6065C62.1419 29.6249 62.2193 29.622 62.2915 29.5982C62.3636 29.5743 62.4275 29.5304 62.4757 29.4717L63.9437 27.696C63.9843 27.6455 64.0369 27.6059 64.0966 27.5809C64.1564 27.5559 64.2215 27.5463 64.286 27.5529L66.581 27.7548C66.6567 27.7617 66.7328 27.747 66.8005 27.7124C66.8681 27.6778 66.9245 27.6246 66.9632 27.5592C67.0019 27.4938 67.0211 27.4187 67.0188 27.3427C67.0165 27.2668 66.9926 27.193 66.95 27.1301L65.7161 25.1863C65.6807 25.1315 65.6593 25.0689 65.6539 25.0039C65.6485 24.9389 65.6591 24.8735 65.6849 24.8136L66.581 22.6939Z" fill="#E2E2E2"/>
</g>
<defs>
<clipPath id="clip0_105_87">
<rect width="72.0966" height="108.48" fill="white" transform="translate(0 27.8174) rotate(-22.6959)"/>
</clipPath>
</defs>
</svg>
