<svg width="82" height="105" viewBox="0 0 82 105" fill="none" xmlns="http://www.w3.org/2000/svg">
<g clip-path="url(#clip0_105_105)">
<path d="M47.4383 74.764L40.617 73.7227L43.6976 53.542L50.5189 54.5833C51.8575 54.7689 53.1459 55.2188 54.3091 55.9069C55.4724 56.5949 56.4874 57.5075 57.2952 58.5915C58.103 59.6754 58.6875 60.9093 59.0147 62.2213C59.3419 63.5333 59.4053 64.8973 59.2012 66.2341C58.9971 67.571 58.5296 68.854 57.8259 70.0086C57.1222 71.1632 56.1962 72.1665 55.1018 72.9601C54.0074 73.7537 52.7664 74.3218 51.4508 74.6315C50.1352 74.9412 48.7713 74.9862 47.4383 74.764ZM44.7555 70.6782L47.9867 71.1714C48.8465 71.3177 49.7268 71.2913 50.5764 71.0936C51.4259 70.8958 52.2277 70.5309 52.9348 70.0199C53.642 69.5089 54.2404 68.8622 54.6952 68.1174C55.15 67.3726 55.4521 66.5447 55.5838 65.6819C55.7155 64.8192 55.6742 63.9388 55.4623 63.0923C55.2504 62.2457 54.8722 61.4499 54.3497 60.7512C53.8272 60.0525 53.1709 59.465 52.419 59.0228C51.6672 58.5806 50.8348 58.2927 49.9705 58.1758L46.7394 57.6826L44.7555 70.6782Z" fill="#0092FC"/>
<path d="M17.6108 39.1211L52.9947 44.5225L47.3324 81.6148C47.1229 82.9873 46.3771 84.2205 45.259 85.043C44.141 85.8654 42.7423 86.2099 41.3707 86.0005L16.336 82.1788C14.9643 81.9695 13.7321 81.2234 12.9104 80.1048C12.0887 78.9862 11.7447 77.5867 11.9543 76.2142L17.6165 39.122L17.6108 39.1211Z" fill="#007CFB"/>
<path d="M17.6108 39.1211L48.9 43.8975L43.7775 77.4539C43.568 78.8264 42.8222 80.0596 41.7041 80.8821C40.5861 81.7045 39.1874 82.049 37.8158 81.8396L16.8757 78.643C15.5041 78.4336 14.2719 77.6876 13.4502 76.569C12.6284 75.4504 12.2845 74.0509 12.494 72.6784L17.6165 39.122L17.6108 39.1211Z" fill="#0092FC"/>
<path d="M38.5321 39.3734C38.3818 39.3505 38.2467 39.2687 38.1567 39.1461C38.0666 39.0235 38.0289 38.8701 38.0519 38.7197C38.1242 38.2076 38.3696 37.7356 38.7471 37.3824C38.9581 37.1958 39.0969 36.941 39.1394 36.6625C39.1819 36.384 39.1254 36.0994 38.9798 35.8584C38.7304 35.4065 38.6375 34.8849 38.7154 34.3746C38.7933 33.8643 39.0377 33.3941 39.4104 33.0373C39.6186 32.8513 39.7556 32.5985 39.7977 32.3224C39.8399 32.0464 39.7846 31.7643 39.6413 31.5246C39.392 31.0728 39.2991 30.5511 39.377 30.0408C39.4548 29.5306 39.6992 29.0604 40.072 28.7035C40.287 28.5227 40.4266 28.2679 40.4633 27.9893C40.4863 27.8388 40.568 27.7037 40.6906 27.6135C40.8131 27.5234 40.9664 27.4856 41.1168 27.5086C41.2671 27.5315 41.4022 27.6133 41.4922 27.7359C41.5823 27.8585 41.62 28.0119 41.597 28.1624C41.5248 28.6739 41.2795 29.1452 40.9021 29.4978C40.6911 29.6844 40.5523 29.9391 40.5098 30.2176C40.4672 30.4961 40.5237 30.7807 40.6694 31.0218C40.919 31.4732 41.0121 31.9946 40.9342 32.5046C40.8563 33.0146 40.6119 33.4845 40.2391 33.841C40.0281 34.0276 39.8893 34.2823 39.8467 34.5608C39.8042 34.8393 39.8607 35.1239 40.0064 35.365C40.2557 35.8168 40.3487 36.3385 40.2708 36.8487C40.1929 37.359 39.9485 37.8292 39.5758 38.1861C39.3615 38.3675 39.222 38.622 39.1844 38.9003C39.1597 39.0491 39.0773 39.1822 38.9553 39.2708C38.8332 39.3593 38.6812 39.3962 38.5321 39.3734Z" fill="#FFD711"/>
<path d="M32.2963 38.4223C32.146 38.3993 32.0109 38.3175 31.9209 38.1949C31.8308 38.0723 31.7931 37.9189 31.8161 37.7685C31.8875 37.2561 32.133 36.7839 32.5113 36.4312C32.7223 36.2446 32.8611 35.9898 32.9036 35.7113C32.9462 35.4328 32.8896 35.1483 32.744 34.9072C32.4947 34.4554 32.4017 33.9337 32.4796 33.4234C32.5575 32.9132 32.8019 32.443 33.1746 32.0861C33.3828 31.9001 33.5198 31.6473 33.5619 31.3713C33.6041 31.0952 33.5488 30.8131 33.4055 30.5734C33.1562 30.1216 33.0633 29.5999 33.1412 29.0897C33.2191 28.5794 33.4634 28.1092 33.8362 27.7523C34.0512 27.5715 34.1908 27.3167 34.2275 27.0381C34.2505 26.8877 34.3322 26.7525 34.4548 26.6624C34.5773 26.5722 34.7306 26.5345 34.881 26.5574C35.0313 26.5804 35.1664 26.6621 35.2565 26.7847C35.3465 26.9073 35.3842 27.0607 35.3613 27.2112C35.289 27.7227 35.0437 28.194 34.6663 28.5466C34.4553 28.7332 34.3165 28.988 34.274 29.2665C34.2314 29.545 34.288 29.8295 34.4336 30.0706C34.6832 30.522 34.7763 31.0434 34.6984 31.5535C34.6206 32.0635 34.3761 32.5334 34.0033 32.8898C33.7923 33.0764 33.6535 33.3312 33.611 33.6097C33.5684 33.8882 33.6249 34.1728 33.7706 34.4138C34.0199 34.8656 34.1129 35.3873 34.035 35.8976C33.9571 36.4078 33.7127 36.878 33.34 37.2349C33.1257 37.4163 32.9862 37.6708 32.9486 37.9491C32.9239 38.0979 32.8416 38.231 32.7195 38.3196C32.5974 38.4081 32.4454 38.445 32.2963 38.4223Z" fill="#FFD711"/>
<path d="M69.417 23.2496L50.8464 20.4148C50.3057 20.3322 49.7543 20.468 49.3136 20.7922C48.8728 21.1165 48.5788 21.6026 48.4962 22.1437L46.508 35.1677C46.4254 35.7088 46.561 36.2605 46.885 36.7015C47.2089 37.1425 47.6947 37.4366 48.2354 37.5191L53.256 38.2855L54.5568 41.1639C54.5752 41.2041 54.603 41.2392 54.6379 41.2663C54.6728 41.2934 54.7137 41.3116 54.7572 41.3194C54.8007 41.3271 54.8454 41.3243 54.8875 41.311C54.9297 41.2977 54.968 41.2744 54.9991 41.243L57.2902 38.9014L66.806 40.354C67.3467 40.4365 67.8981 40.3007 68.3389 39.9765C68.7796 39.6522 69.0736 39.1661 69.1562 38.625L71.1444 25.601C71.227 25.0599 71.0914 24.5082 70.7675 24.0672C70.4435 23.6263 69.9577 23.3322 69.417 23.2496V23.2496Z" fill="#FF1778"/>
<path d="M47.256 36.12C47.0006 36.0807 46.7548 35.994 46.5312 35.8643C46.6108 36.2841 46.8184 36.6689 47.1257 36.9657C47.4329 37.2624 47.8246 37.4565 48.2467 37.5212L53.2559 38.2859L52.6507 36.9435L47.256 36.12Z" fill="#EC0062"/>
<path d="M70.1513 23.5075C70.1942 23.7367 70.1983 23.9715 70.1632 24.202L68.1748 37.2279C68.0917 37.7687 67.7976 38.2546 67.3569 38.5787C66.9163 38.9029 66.3652 39.0388 65.8245 38.9568L56.3144 37.5051L54.0233 39.8468L53.9863 39.874L54.5623 41.1674C54.5806 41.2076 54.6085 41.2427 54.6434 41.2698C54.6783 41.2968 54.7192 41.315 54.7627 41.3228C54.8062 41.3306 54.8509 41.3277 54.893 41.3144C54.9351 41.3011 54.9734 41.2778 55.0046 41.2465L57.2956 38.9048L66.8058 40.3566C67.3465 40.4391 67.8979 40.3033 68.3387 39.9791C68.7794 39.6548 69.0735 39.1687 69.1561 38.6276L71.1445 25.6017C71.2078 25.1932 71.147 24.7751 70.9699 24.4016C70.7928 24.0282 70.5076 23.7167 70.1513 23.5075V23.5075Z" fill="#EC0062"/>
<path d="M58.1597 34.7404C60.5244 35.1014 62.7342 33.4757 63.0954 31.1094C63.4567 28.7431 61.8325 26.5322 59.4678 26.1712C57.103 25.8102 54.8932 27.4359 54.532 29.8022C54.1708 32.1685 55.7949 34.3794 58.1597 34.7404Z" fill="#27215E"/>
<path d="M60.4927 32.8172C60.4035 32.8037 60.322 32.759 60.2626 32.6912L58.5254 30.7078C58.4887 30.6658 58.4617 30.6164 58.4462 30.5629C58.4306 30.5094 58.4269 30.4531 58.4354 30.398L58.7777 28.1555C58.793 28.0552 58.8475 27.9651 58.9292 27.905C59.0109 27.8449 59.1131 27.8197 59.2134 27.835C59.3136 27.8503 59.4036 27.9048 59.4637 27.9866C59.5237 28.0683 59.5489 28.1706 59.5335 28.2709L59.2181 30.3376L60.8381 32.1889C60.889 32.248 60.9207 32.3212 60.9288 32.3988C60.937 32.4764 60.9212 32.5547 60.8836 32.6231C60.846 32.6915 60.7884 32.7467 60.7186 32.7814C60.6487 32.8161 60.5699 32.8286 60.4927 32.8172V32.8172Z" fill="white"/>
</g>
<defs>
<clipPath id="clip0_105_105">
<rect width="67.3612" height="95.6362" fill="white" transform="translate(14.4321) rotate(8.67938)"/>
</clipPath>
</defs>
</svg>
