<svg width="32" height="32" viewBox="0 0 32 32" fill="none" xmlns="http://www.w3.org/2000/svg">
<g clip-path="url(#clip0_105_130)">
<circle cx="16" cy="16" r="16" fill="#F0F6FF"/>
<path d="M18.7643 8.40056L18.8724 8.40054L19.0005 8.40056L19.1048 8.40077L19.273 8.40039L19.4395 8.40054H21.3883C21.5726 8.4006 21.7525 8.45725 21.9035 8.56284C22.0546 8.66842 22.1696 8.81785 22.233 8.99093L23.3334 11.9909C23.3832 12.1268 23.3995 12.2728 23.3808 12.4164C23.3622 12.56 23.3091 12.697 23.2262 12.8158C23.1433 12.9345 23.0329 13.0315 22.9045 13.0984C22.7761 13.1654 22.6335 13.2004 22.4886 13.2004H22.0819L20.3719 23.2046C20.2765 23.7628 19.9867 24.2693 19.5539 24.6345C19.1211 24.9996 18.5731 25.2 18.0068 25.2001H14.3768C13.8103 25.2003 13.262 25.0001 12.8289 24.6348C12.3959 24.2696 12.106 23.763 12.0105 23.2046L10.3005 13.2004H9.89255C9.74754 13.2003 9.60471 13.1652 9.4762 13.098C9.34769 13.0308 9.23732 12.9336 9.15448 12.8146C9.07164 12.6956 9.01879 12.5583 9.00042 12.4145C8.98205 12.2706 8.9987 12.1245 9.04897 11.9885L10.1565 8.98853C10.2203 8.81609 10.3353 8.66731 10.4861 8.56219C10.6369 8.45707 10.8163 8.40066 11.0001 8.40054H17.7716H17.9932H18.2089C18.2089 8.40054 18.3341 8.40056 18.4932 8.40056C18.6523 8.40056 18.7643 8.40056 18.7643 8.40056ZM11.5185 13.2004L13.1937 23.003C13.2415 23.2821 13.3865 23.5353 13.6031 23.7177C13.8196 23.9002 14.0937 24.0003 14.3768 24.0002H18.0068C18.2897 24 18.5635 23.8998 18.7798 23.7174C18.9961 23.5349 19.1409 23.2819 19.1887 23.003L20.8651 13.2004H11.5173H11.5185ZM10.3233 12.0005H22.0591L21.1783 9.60051H11.2113L10.3233 12.0005Z" fill="#017FFA"/>
</g>
<defs>
<clipPath id="clip0_105_130">
<rect width="32" height="32" fill="white"/>
</clipPath>
</defs>
</svg>
