<svg width="32" height="32" viewBox="0 0 32 32" fill="none" xmlns="http://www.w3.org/2000/svg">
<path d="M10.8571 5.71387C10.1817 5.71387 9.51295 5.84689 8.88899 6.10534C8.26503 6.3638 7.69808 6.74262 7.22052 7.22018C6.74297 7.69773 6.36415 8.26468 6.10569 8.88864C5.84724 9.5126 5.71422 10.1814 5.71422 10.8567C5.71422 11.5321 5.84724 12.2009 6.10569 12.8248C6.36415 13.4488 6.74297 14.0157 7.22052 14.4933C7.69808 14.9708 8.26503 15.3497 8.88899 15.6081C9.51295 15.8666 10.1817 15.9996 10.8571 15.9996C12.221 15.9996 13.5292 15.4577 14.4936 14.4933C15.4581 13.5288 15.9999 12.2207 15.9999 10.8567C15.9999 9.49275 15.4581 8.18465 14.4936 7.22018C13.5292 6.2557 12.221 5.71387 10.8571 5.71387ZM7.4285 10.8567C7.4285 10.4065 7.51718 9.96064 7.68949 9.54467C7.86179 9.12869 8.11434 8.75073 8.43271 8.43236C8.75108 8.11399 9.12904 7.86144 9.54502 7.68914C9.96099 7.51684 10.4068 7.42815 10.8571 7.42815C11.3073 7.42815 11.7532 7.51684 12.1691 7.68914C12.5851 7.86144 12.9631 8.11399 13.2814 8.43236C13.5998 8.75073 13.8524 9.12869 14.0247 9.54467C14.197 9.96064 14.2856 10.4065 14.2856 10.8567C14.2856 11.766 13.9244 12.6381 13.2814 13.2811C12.6385 13.9241 11.7664 14.2853 10.8571 14.2853C9.94776 14.2853 9.07569 13.9241 8.43271 13.2811C7.78973 12.6381 7.4285 11.766 7.4285 10.8567ZM22.8571 7.99958C21.7962 7.99958 20.7788 8.42101 20.0286 9.17115C19.2785 9.9213 18.8571 10.9387 18.8571 11.9996C18.8571 13.0604 19.2785 14.0779 20.0286 14.828C20.7788 15.5782 21.7962 15.9996 22.8571 15.9996C23.9179 15.9996 24.9354 15.5782 25.6855 14.828C26.4356 14.0779 26.8571 13.0604 26.8571 11.9996C26.8571 10.9387 26.4356 9.9213 25.6855 9.17115C24.9354 8.42101 23.9179 7.99958 22.8571 7.99958ZM20.5714 11.9996C20.5714 11.3934 20.8122 10.812 21.2408 10.3833C21.6695 9.95468 22.2509 9.71387 22.8571 9.71387C23.4633 9.71387 24.0447 9.95468 24.4733 10.3833C24.902 10.812 25.1428 11.3934 25.1428 11.9996C25.1428 12.6058 24.902 13.1872 24.4733 13.6158C24.0447 14.0445 23.4633 14.2853 22.8571 14.2853C22.2509 14.2853 21.6695 14.0445 21.2408 13.6158C20.8122 13.1872 20.5714 12.6058 20.5714 11.9996ZM2.28564 20.8567C2.28564 20.1747 2.55656 19.5207 3.0388 19.0385C3.52103 18.5562 4.17509 18.2853 4.85707 18.2853H16.8571C17.5391 18.2853 18.1931 18.5562 18.6753 19.0385C19.1576 19.5207 19.4285 20.1747 19.4285 20.8567V21.4636C19.427 21.5561 19.4205 21.6484 19.4091 21.7402C19.3833 21.9759 19.3413 22.2096 19.2834 22.4396C19.0944 23.1901 18.7575 23.8953 18.2925 24.5139C17.1336 26.0602 14.9234 27.4282 10.8571 27.4282C6.79079 27.4282 4.5805 26.0602 3.42164 24.5139C2.95702 23.8952 2.62055 23.19 2.43193 22.4396C2.35731 22.1408 2.3095 21.836 2.28907 21.5287C2.28765 21.507 2.28651 21.4853 2.28564 21.4636V20.8567ZM3.99993 21.4224V21.443L4.01022 21.5573C4.02164 21.6647 4.0445 21.8259 4.09479 22.0236C4.22803 22.5522 4.465 23.0491 4.79193 23.4853C5.56222 24.5104 7.20907 25.7139 10.8571 25.7139C14.5051 25.7139 16.1519 24.5104 16.9211 23.4853C17.3211 22.9527 17.5199 22.4202 17.6182 22.0236C17.6662 21.8331 17.698 21.6389 17.7131 21.443L17.7142 21.4224V20.8567C17.7142 20.6294 17.6239 20.4114 17.4632 20.2506C17.3024 20.0899 17.0844 19.9996 16.8571 19.9996H4.85707C4.62974 19.9996 4.41173 20.0899 4.25098 20.2506C4.09024 20.4114 3.99993 20.6294 3.99993 20.8567V21.4224ZM19.5428 24.7082C20.4262 24.979 21.5165 25.1424 22.8548 25.1424C26.0205 25.1424 27.7896 24.2327 28.7508 23.1356C29.1351 22.7014 29.4199 22.1885 29.5851 21.6327C29.6503 21.4083 29.6921 21.1778 29.7096 20.9447L29.7119 20.891V20.8567C29.7119 20.1747 29.441 19.5207 28.9588 19.0385C28.4765 18.5562 27.8225 18.2853 27.1405 18.2853H19.5359C19.9862 18.755 20.3154 19.3436 20.4708 19.9996H27.1416C27.367 19.9996 27.5833 20.0883 27.7437 20.2466C27.9042 20.4049 27.9958 20.62 27.9988 20.8453C27.9887 20.949 27.9688 21.0516 27.9394 21.1516C27.8438 21.4682 27.6799 21.76 27.4594 22.0064C26.9211 22.6236 25.6914 23.4282 22.8548 23.4282C21.7794 23.4282 20.9348 23.3127 20.2708 23.1344C20.0946 23.6873 19.8501 24.216 19.5428 24.7082Z" fill="#1F2937"/>
</svg>
