<svg width="32" height="32" viewBox="0 0 32 32" fill="none" xmlns="http://www.w3.org/2000/svg">
<path d="M18.6181 20.0316C16.8209 21.4673 14.5422 22.1605 12.2499 21.9687C9.95767 21.7768 7.82587 20.7146 6.29234 19.0001C4.75881 17.2856 3.93997 15.0489 4.00398 12.7496C4.06799 10.4502 5.00999 8.26258 6.63653 6.63604C8.26307 5.00951 10.4507 4.0675 12.75 4.00349C15.0494 3.93948 17.286 4.75832 19.0005 6.29185C20.7151 7.82538 21.7773 9.95718 21.9691 12.2494C22.161 14.5417 21.4678 16.8204 20.0321 18.6176L27.7081 26.2916C27.8958 26.4793 28.0013 26.734 28.0013 26.9996C28.0013 27.2651 27.8958 27.5198 27.7081 27.7076C27.5203 27.8953 27.2656 28.0008 27.0001 28.0008C26.7345 28.0008 26.4798 27.8953 26.2921 27.7076L18.6201 20.0316H18.6181ZM20.0001 12.9996C20.0001 12.0803 19.819 11.1701 19.4672 10.3208C19.1154 9.47151 18.5998 8.69983 17.9498 8.04982C17.2998 7.39981 16.5281 6.8842 15.6788 6.53241C14.8296 6.18063 13.9193 5.99957 13.0001 5.99957C12.0808 5.99957 11.1706 6.18063 10.3213 6.53241C9.472 6.8842 8.70032 7.39981 8.05031 8.04982C7.4003 8.69983 6.88469 9.47151 6.5329 10.3208C6.18112 11.1701 6.00006 12.0803 6.00006 12.9996C6.00006 14.8561 6.73756 16.6366 8.05031 17.9493C9.36307 19.2621 11.1435 19.9996 13.0001 19.9996C14.8566 19.9996 16.6371 19.2621 17.9498 17.9493C19.2626 16.6366 20.0001 14.8561 20.0001 12.9996Z" fill="#1F2937"/>
</svg>
