<svg width="32" height="32" viewBox="0 0 32 32" fill="none" xmlns="http://www.w3.org/2000/svg">
<path d="M12.7999 17.6002C12.7999 18.0245 12.6313 18.4315 12.3313 18.7316C12.0312 19.0316 11.6242 19.2002 11.1999 19.2002C10.7756 19.2002 10.3686 19.0316 10.0685 18.7316C9.76847 18.4315 9.5999 18.0245 9.5999 17.6002C9.5999 17.1758 9.76847 16.7689 10.0685 16.4688C10.3686 16.1688 10.7756 16.0002 11.1999 16.0002C11.6242 16.0002 12.0312 16.1688 12.3313 16.4688C12.6313 16.7689 12.7999 17.1758 12.7999 17.6002ZM12.7999 22.4002C12.7999 22.8245 12.6313 23.2315 12.3313 23.5316C12.0312 23.8316 11.6242 24.0002 11.1999 24.0002C10.7756 24.0002 10.3686 23.8316 10.0685 23.5316C9.76847 23.2315 9.5999 22.8245 9.5999 22.4002C9.5999 21.9758 9.76847 21.5689 10.0685 21.2688C10.3686 20.9688 10.7756 20.8002 11.1999 20.8002C11.6242 20.8002 12.0312 20.9688 12.3313 21.2688C12.6313 21.5689 12.7999 21.9758 12.7999 22.4002ZM20.7999 19.2002C21.2242 19.2002 21.6312 19.0316 21.9313 18.7316C22.2313 18.4315 22.3999 18.0245 22.3999 17.6002C22.3999 17.1758 22.2313 16.7689 21.9313 16.4688C21.6312 16.1688 21.2242 16.0002 20.7999 16.0002C20.3756 16.0002 19.9686 16.1688 19.6685 16.4688C19.3685 16.7689 19.1999 17.1758 19.1999 17.6002C19.1999 18.0245 19.3685 18.4315 19.6685 18.7316C19.9686 19.0316 20.3756 19.2002 20.7999 19.2002ZM22.3999 22.4002C22.3999 22.8245 22.2313 23.2315 21.9313 23.5316C21.6312 23.8316 21.2242 24.0002 20.7999 24.0002C20.3756 24.0002 19.9686 23.8316 19.6685 23.5316C19.3685 23.2315 19.1999 22.8245 19.1999 22.4002C19.1999 21.9758 19.3685 21.5689 19.6685 21.2688C19.9686 20.9688 20.3756 20.8002 20.7999 20.8002C21.2242 20.8002 21.6312 20.9688 21.9313 21.2688C22.2313 21.5689 22.3999 21.9758 22.3999 22.4002ZM15.9999 19.2002C16.4242 19.2002 16.8312 19.0316 17.1313 18.7316C17.4313 18.4315 17.5999 18.0245 17.5999 17.6002C17.5999 17.1758 17.4313 16.7689 17.1313 16.4688C16.8312 16.1688 16.4242 16.0002 15.9999 16.0002C15.5756 16.0002 15.1686 16.1688 14.8685 16.4688C14.5685 16.7689 14.3999 17.1758 14.3999 17.6002C14.3999 18.0245 14.5685 18.4315 14.8685 18.7316C15.1686 19.0316 15.5756 19.2002 15.9999 19.2002ZM17.5999 22.4002C17.5999 22.8245 17.4313 23.2315 17.1313 23.5316C16.8312 23.8316 16.4242 24.0002 15.9999 24.0002C15.5756 24.0002 15.1686 23.8316 14.8685 23.5316C14.5685 23.2315 14.3999 22.8245 14.3999 22.4002C14.3999 21.9758 14.5685 21.5689 14.8685 21.2688C15.1686 20.9688 15.5756 20.8002 15.9999 20.8002C16.4242 20.8002 16.8312 20.9688 17.1313 21.2688C17.4313 21.5689 17.5999 21.9758 17.5999 22.4002ZM11.9999 6.4002C11.3634 6.4002 10.7529 6.65305 10.3028 7.10314C9.85276 7.55323 9.5999 8.16368 9.5999 8.8002V10.4002C9.5999 11.0367 9.85276 11.6472 10.3028 12.0973C10.7529 12.5473 11.3634 12.8002 11.9999 12.8002H19.9999C20.6364 12.8002 21.2469 12.5473 21.697 12.0973C22.147 11.6472 22.3999 11.0367 22.3999 10.4002V8.8002C22.3999 8.16368 22.147 7.55323 21.697 7.10314C21.2469 6.65305 20.6364 6.4002 19.9999 6.4002H11.9999ZM11.1999 8.8002C11.1999 8.58802 11.2842 8.38454 11.4342 8.23451C11.5842 8.08448 11.7877 8.0002 11.9999 8.0002H19.9999C20.2121 8.0002 20.4156 8.08448 20.5656 8.23451C20.7156 8.38454 20.7999 8.58802 20.7999 8.8002V10.4002C20.7999 10.6124 20.7156 10.8159 20.5656 10.9659C20.4156 11.1159 20.2121 11.2002 19.9999 11.2002H11.9999C11.7877 11.2002 11.5842 11.1159 11.4342 10.9659C11.2842 10.8159 11.1999 10.6124 11.1999 10.4002V8.8002ZM25.5999 24.8002C25.5999 25.8611 25.1785 26.8785 24.4283 27.6286C23.6782 28.3788 22.6608 28.8002 21.5999 28.8002H10.3999C9.33904 28.8002 8.32162 28.3788 7.57148 27.6286C6.82133 26.8785 6.3999 25.8611 6.3999 24.8002V7.2002C6.3999 6.13933 6.82133 5.12191 7.57148 4.37177C8.32162 3.62162 9.33904 3.2002 10.3999 3.2002H21.5999C22.6608 3.2002 23.6782 3.62162 24.4283 4.37177C25.1785 5.12191 25.5999 6.13933 25.5999 7.2002V24.8002ZM23.9999 7.2002C23.9999 6.56368 23.747 5.95323 23.297 5.50314C22.8469 5.05305 22.2364 4.8002 21.5999 4.8002H10.3999C9.76338 4.8002 9.15293 5.05305 8.70285 5.50314C8.25276 5.95323 7.9999 6.56368 7.9999 7.2002V24.8002C7.9999 25.4367 8.25276 26.0472 8.70285 26.4973C9.15293 26.9473 9.76338 27.2002 10.3999 27.2002H21.5999C22.2364 27.2002 22.8469 26.9473 23.297 26.4973C23.747 26.0472 23.9999 25.4367 23.9999 24.8002V7.2002Z" fill="#1F2937"/>
</svg>
