<svg width="32" height="32" viewBox="0 0 32 32" fill="none" xmlns="http://www.w3.org/2000/svg">
<path d="M14.3966 3.82079C14.8371 3.425 15.4084 3.20605 16.0006 3.20605C16.5928 3.20605 17.1641 3.425 17.6046 3.82079L26.4046 11.728C26.6548 11.953 26.8549 12.2281 26.9919 12.5354C27.1289 12.8428 27.1997 13.1755 27.1998 13.512V24.8C27.1998 25.4365 26.9469 26.047 26.4969 26.497C26.0468 26.9471 25.4363 27.2 24.7998 27.2H20.7998C20.1633 27.2 19.5528 26.9471 19.1027 26.497C18.6527 26.047 18.3998 25.4365 18.3998 24.8V19.2C18.3998 18.9878 18.3155 18.7843 18.1655 18.6343C18.0155 18.4843 17.812 18.4 17.5998 18.4H14.3998C14.1876 18.4 13.9841 18.4843 13.8341 18.6343C13.6841 18.7843 13.5998 18.9878 13.5998 19.2V24.8C13.5998 25.4365 13.3469 26.047 12.8969 26.497C12.4468 26.9471 11.8363 27.2 11.1998 27.2H7.1998C6.56329 27.2 5.95284 26.9471 5.50275 26.497C5.05266 26.047 4.7998 25.4365 4.7998 24.8V13.512C4.7998 12.832 5.0878 12.184 5.5966 11.728L14.3966 3.82079ZM16.5342 5.01119C16.3874 4.87941 16.1971 4.80652 15.9998 4.80652C15.8025 4.80652 15.6122 4.87941 15.4654 5.01119L6.6654 12.9184C6.58204 12.9932 6.51532 13.0847 6.46957 13.187C6.42381 13.2892 6.40005 13.4 6.3998 13.512V24.8C6.3998 25.0122 6.48409 25.2156 6.63412 25.3657C6.78415 25.5157 6.98763 25.6 7.1998 25.6H11.1998C11.412 25.6 11.6155 25.5157 11.7655 25.3657C11.9155 25.2156 11.9998 25.0122 11.9998 24.8V19.2C11.9998 18.5635 12.2527 17.953 12.7027 17.5029C13.1528 17.0528 13.7633 16.8 14.3998 16.8H17.5998C18.2363 16.8 18.8468 17.0528 19.2969 17.5029C19.7469 17.953 19.9998 18.5635 19.9998 19.2V24.8C19.9998 25.0122 20.0841 25.2156 20.2341 25.3657C20.3841 25.5157 20.5876 25.6 20.7998 25.6H24.7998C25.012 25.6 25.2155 25.5157 25.3655 25.3657C25.5155 25.2156 25.5998 25.0122 25.5998 24.8V13.512C25.5996 13.4 25.5758 13.2892 25.53 13.187C25.4843 13.0847 25.4176 12.9932 25.3342 12.9184L16.5342 5.01119Z" fill="#1F2937"/>
</svg>
