<svg width="32" height="32" viewBox="0 0 32 32" fill="none" xmlns="http://www.w3.org/2000/svg">
<path d="M16.7874 14.2562C16.7518 14.0595 16.6438 13.8832 16.4847 13.7621C16.3257 13.6411 16.127 13.5839 15.9279 13.602C15.7288 13.6201 15.5437 13.712 15.409 13.8597C15.2743 14.0075 15.1998 14.2003 15.2002 14.4002V21.6034L15.213 21.7474C15.2486 21.9441 15.3566 22.1204 15.5157 22.2414C15.6747 22.3625 15.8734 22.4197 16.0725 22.4016C16.2716 22.3835 16.4567 22.2916 16.5914 22.1439C16.7261 21.9961 16.8006 21.8033 16.8002 21.6034V14.4002L16.7874 14.2562ZM17.2786 10.8002C17.2786 10.4819 17.1522 10.1767 16.9271 9.95167C16.7021 9.72662 16.3969 9.6002 16.0786 9.6002C15.7603 9.6002 15.4551 9.72662 15.2301 9.95167C15.005 10.1767 14.8786 10.4819 14.8786 10.8002C14.8786 11.1185 15.005 11.4237 15.2301 11.6487C15.4551 11.8738 15.7603 12.0002 16.0786 12.0002C16.3969 12.0002 16.7021 11.8738 16.9271 11.6487C17.1522 11.4237 17.2786 11.1185 17.2786 10.8002ZM28.8002 16.0002C28.8002 12.6054 27.4516 9.34969 25.0512 6.94923C22.6507 4.54876 19.395 3.2002 16.0002 3.2002C12.6054 3.2002 9.34969 4.54876 6.94923 6.94923C4.54876 9.34969 3.2002 12.6054 3.2002 16.0002C3.2002 19.395 4.54876 22.6507 6.94923 25.0512C9.34969 27.4516 12.6054 28.8002 16.0002 28.8002C19.395 28.8002 22.6507 27.4516 25.0512 25.0512C27.4516 22.6507 28.8002 19.395 28.8002 16.0002ZM4.8002 16.0002C4.8002 14.5294 5.08989 13.073 5.65274 11.7141C6.2156 10.3553 7.04058 9.12062 8.0806 8.0806C9.12062 7.04058 10.3553 6.2156 11.7141 5.65274C13.073 5.08989 14.5294 4.8002 16.0002 4.8002C17.471 4.8002 18.9274 5.08989 20.2863 5.65274C21.6451 6.2156 22.8798 7.04058 23.9198 8.0806C24.9598 9.12062 25.7848 10.3553 26.3476 11.7141C26.9105 13.073 27.2002 14.5294 27.2002 16.0002C27.2002 18.9706 26.0202 21.8194 23.9198 23.9198C21.8194 26.0202 18.9706 27.2002 16.0002 27.2002C13.0298 27.2002 10.181 26.0202 8.0806 23.9198C5.98019 21.8194 4.8002 18.9706 4.8002 16.0002Z" fill="#1F2937"/>
</svg>
