<svg width="20" height="20" viewBox="0 0 20 20" fill="none" xmlns="http://www.w3.org/2000/svg">
<path d="M8.2142 1.96387C9.40469 1.96384 10.5704 2.30383 11.5743 2.94382C12.5781 3.58382 13.3783 4.4972 13.8806 5.57651C14.383 6.65581 14.5666 7.85615 14.41 9.03629C14.2533 10.2164 13.7629 11.3273 12.9963 12.2382L17.8785 17.121C17.9735 17.2167 18.0288 17.3447 18.0336 17.4795C18.0383 17.6142 17.9921 17.7458 17.9041 17.848C17.8161 17.9501 17.6928 18.0153 17.5588 18.0306C17.4249 18.0459 17.2901 18.01 17.1813 17.9303L17.1213 17.8782L12.2385 12.996C11.4694 13.6432 10.5556 14.0953 9.5746 14.314C8.59358 14.5328 7.57427 14.5117 6.60312 14.2526C5.63198 13.9935 4.73765 13.504 3.996 12.8256C3.25435 12.1472 2.68725 11.2999 2.3428 10.3557C1.99836 9.41142 1.88673 8.39802 2.01739 7.40143C2.14804 6.40484 2.51712 5.45446 3.09333 4.6309C3.66954 3.80735 4.43588 3.13491 5.32733 2.67062C6.21879 2.20633 7.20908 1.96389 8.2142 1.96387ZM8.2142 3.0353C6.84076 3.0353 5.52357 3.58089 4.5524 4.55206C3.58123 5.52323 3.03563 6.84042 3.03563 8.21387C3.03563 9.58731 3.58123 10.9045 4.5524 11.8757C5.52357 12.8468 6.84076 13.3924 8.2142 13.3924C9.58764 13.3924 10.9048 12.8468 11.876 11.8757C12.8472 10.9045 13.3928 9.58731 13.3928 8.21387C13.3928 6.84042 12.8472 5.52323 11.876 4.55206C10.9048 3.58089 9.58764 3.0353 8.2142 3.0353Z" fill="#828282"/>
</svg>
