<svg width="16" height="16" viewBox="0 0 16 16" fill="none" xmlns="http://www.w3.org/2000/svg">
<path d="M7.99968 1.33301C6.68114 1.33301 5.3922 1.724 4.29588 2.45654C3.19955 3.18909 2.34506 4.23028 1.84048 5.44845C1.3359 6.66663 1.20387 8.00707 1.46111 9.30028C1.71834 10.5935 2.35328 11.7814 3.28563 12.7137C4.21798 13.6461 5.40587 14.281 6.69908 14.5382C7.99228 14.7955 9.33273 14.6635 10.5509 14.1589C11.7691 13.6543 12.8103 12.7998 13.5428 11.7035C14.2754 10.6071 14.6663 9.31822 14.6663 7.99967C14.6644 6.23216 13.9614 4.5376 12.7116 3.28777C11.4618 2.03795 9.76719 1.33495 7.99968 1.33301V1.33301ZM7.99968 13.333C6.94484 13.333 5.9137 13.0202 5.03664 12.4342C4.15957 11.8481 3.47599 11.0152 3.07232 10.0407C2.66865 9.06611 2.56304 7.99376 2.76882 6.95919C2.97461 5.92463 3.48256 4.97432 4.22844 4.22844C4.97432 3.48256 5.92463 2.97461 6.9592 2.76882C7.99376 2.56303 9.06612 2.66865 10.0407 3.07232C11.0152 3.47598 11.8481 4.15957 12.4342 5.03663C13.0202 5.9137 13.333 6.94484 13.333 7.99967C13.3312 9.41362 12.7688 10.7691 11.769 11.769C10.7692 12.7688 9.41362 13.3312 7.99968 13.333ZM7.99968 7.66634C7.82287 7.66634 7.6533 7.73658 7.52827 7.8616C7.40325 7.98663 7.33301 8.1562 7.33301 8.33301V10.333C7.33301 10.5098 7.40325 10.6794 7.52827 10.8044C7.6533 10.9294 7.82287 10.9997 7.99968 10.9997C8.17649 10.9997 8.34606 10.9294 8.47108 10.8044C8.59611 10.6794 8.66634 10.5098 8.66634 10.333V8.33301C8.66634 8.1562 8.59611 7.98663 8.47108 7.8616C8.34606 7.73658 8.17649 7.66634 7.99968 7.66634ZM7.99968 4.99967C7.83486 4.99967 7.67374 5.04855 7.5367 5.14012C7.39966 5.23168 7.29285 5.36183 7.22978 5.5141C7.16671 5.66638 7.1502 5.83393 7.18236 5.99558C7.21451 6.15723 7.29388 6.30572 7.41042 6.42226C7.52697 6.53881 7.67545 6.61817 7.8371 6.65033C7.99875 6.68248 8.16631 6.66598 8.31858 6.60291C8.47085 6.53983 8.601 6.43302 8.69257 6.29598C8.78414 6.15894 8.83301 5.99783 8.83301 5.83301C8.83301 5.61199 8.74521 5.40003 8.58893 5.24375C8.43265 5.08747 8.22069 4.99967 7.99968 4.99967V4.99967Z" fill="#017FFA"/>
</svg>
