<svg width="12" height="12" viewBox="0 0 12 12" fill="none" xmlns="http://www.w3.org/2000/svg">
<path d="M11.0003 6.83171H6.83366V10.9984C6.83366 11.2194 6.74586 11.4313 6.58958 11.5876C6.4333 11.7439 6.22134 11.8317 6.00033 11.8317C5.77931 11.8317 5.56735 11.7439 5.41107 11.5876C5.25479 11.4313 5.16699 11.2194 5.16699 10.9984V6.83171H1.00033C0.779312 6.83171 0.56735 6.74391 0.41107 6.58763C0.25479 6.43135 0.166992 6.21939 0.166992 5.99837C0.166992 5.77736 0.25479 5.5654 0.41107 5.40912C0.56735 5.25284 0.779312 5.16504 1.00033 5.16504H5.16699V0.998372C5.16699 0.777359 5.25479 0.565397 5.41107 0.409117C5.56735 0.252836 5.77931 0.165039 6.00033 0.165039C6.22134 0.165039 6.4333 0.252836 6.58958 0.409117C6.74586 0.565397 6.83366 0.777359 6.83366 0.998372V5.16504H11.0003C11.2213 5.16504 11.4333 5.25284 11.5896 5.40912C11.7459 5.5654 11.8337 5.77736 11.8337 5.99837C11.8337 6.21939 11.7459 6.43135 11.5896 6.58763C11.4333 6.74391 11.2213 6.83171 11.0003 6.83171Z" fill="#0180FA"/>
</svg>
