<?xml version="1.0" encoding="UTF-8"?>
<svg width="700pt" height="700pt" version="1.1" viewBox="0 0 700 700" xmlns="http://www.w3.org/2000/svg" xmlns:xlink="http://www.w3.org/1999/xlink">

 <g>
  <path d="m409.06 161.44c0-4.6406 1.8438-9.0938 5.125-12.375s7.7344-5.125 12.375-5.125 9.0938 1.8438 12.375 5.125 5.125 7.7344 5.125 12.375-1.8438 9.0938-5.125 12.375-7.7344 5.125-12.375 5.125c-4.6367-0.015625-9.082-1.8633-12.359-5.1406s-5.125-7.7227-5.1406-12.359zm-164.15 38.062-124.6 144.29v-255.85c0-4.832 3.918-8.75 8.75-8.75h393.75c2.3203 0 4.5469 0.92188 6.1875 2.5625s2.5625 3.8672 2.5625 6.1875v238.26c-7.1367-1.8945-14.488-2.8672-21.875-2.8867-1.3125 0-2.5391 0.17578-3.8516 0.17578l-72.801-80.414h0.003906c-1.6562-1.832-4.0078-2.8828-6.4766-2.8867-2.5195-0.019531-4.918 1.0703-6.5625 2.9766l-63.352 71.227-98.438-114.89c-1.6602-1.9453-4.0898-3.0625-6.6484-3.0625s-4.9883 1.1172-6.6484 3.0625zm146.65-38.062c0 9.2812 3.6875 18.184 10.25 24.75 6.5664 6.5625 15.469 10.25 24.75 10.25s18.184-3.6875 24.75-10.25c6.5625-6.5664 10.25-15.469 10.25-24.75s-3.6875-18.184-10.25-24.75c-6.5664-6.5625-15.469-10.25-24.75-10.25s-18.184 3.6875-24.75 10.25c-6.5625 6.5664-10.25 15.469-10.25 24.75zm93.695 165.38-58.625-64.812-63.508 71.508c-1.668 1.9062-4.0898 2.9805-6.625 2.9297-2.5234-0.023438-4.918-1.1367-6.5625-3.0547l-98.402-114.78-131.25 151.98v48.125-0.003906c0 2.3242 0.92188 4.5469 2.5625 6.1875s3.8672 2.5625 6.1875 2.5625h294.78c-4.2109-21.418-0.23438-43.633 11.145-62.266 11.375-18.629 29.32-32.316 50.297-38.359zm94.43 84c-0.023438 22.34-10.707 43.324-28.754 56.484-18.051 13.164-41.297 16.922-62.574 10.117-21.273-6.8086-38.023-23.359-45.086-44.551v-0.17578c-2.3633-7.0508-3.5742-14.438-3.5859-21.875 0.027344-18.559 7.4102-36.348 20.531-49.469s30.91-20.504 49.469-20.531c9.3516-0.023438 18.609 1.8516 27.211 5.5117h0.089843c12.652 5.3867 23.441 14.367 31.031 25.832 7.5938 11.465 11.648 24.906 11.668 38.656zm-20.824 0c0-2.3203-0.92188-4.5469-2.5625-6.1875s-3.8672-2.5625-6.1875-2.5625h-31.676v-31.676c0-4.832-3.918-8.75-8.75-8.75s-8.75 3.918-8.75 8.75v31.676h-31.676c-4.832 0-8.75 3.918-8.75 8.75s3.918 8.75 8.75 8.75h31.676v31.676c0 4.832 3.918 8.75 8.75 8.75s8.75-3.918 8.75-8.75v-31.676h31.676c2.3203 0 4.5469-0.92188 6.1875-2.5625s2.5625-3.8672 2.5625-6.1875z"/>
  <use x="70" y="691.25" xlink:href="#o"/>
  <use x="102.109375" y="691.25" xlink:href="#h"/>
  <use x="123.683594" y="691.25" xlink:href="#a"/>
  <use x="153.355469" y="691.25" xlink:href="#g"/>
  <use x="182.878906" y="691.25" xlink:href="#f"/>
  <use x="203.792969" y="691.25" xlink:href="#a"/>
  <use x="233.464844" y="691.25" xlink:href="#e"/>
  <use x="280.011719" y="691.25" xlink:href="#d"/>
  <use x="311.328125" y="691.25" xlink:href="#c"/>
  <use x="355.078125" y="691.25" xlink:href="#b"/>
  <use x="384.921875" y="691.25" xlink:href="#n"/>
  <use x="416.070312" y="691.25" xlink:href="#a"/>
  <use x="460.972656" y="691.25" xlink:href="#m"/>
  <use x="477.25" y="691.25" xlink:href="#l"/>
  <use x="503.183594" y="691.25" xlink:href="#k"/>
  <use x="533.242188" y="691.25" xlink:href="#j"/>
  <use x="579.617188" y="691.25" xlink:href="#i"/>
 </g>
</svg>
