<svg width="32" height="32" viewBox="0 0 32 32" fill="none" xmlns="http://www.w3.org/2000/svg">
<g clip-path="url(#clip0_105_150)">
<circle cx="16" cy="16" r="16" fill="#F0F6FF"/>
<path d="M14.2254 15.1127C14.0573 15.1127 13.896 15.1795 13.7772 15.2983C13.6583 15.4172 13.5915 15.5784 13.5915 15.7465C13.5915 15.9146 13.6583 16.0758 13.7772 16.1946C13.896 16.3135 14.0573 16.3803 14.2254 16.3803H17.7746C17.9427 16.3803 18.104 16.3135 18.2228 16.1946C18.3417 16.0758 18.4085 15.9146 18.4085 15.7465C18.4085 15.5784 18.3417 15.4172 18.2228 15.2983C18.104 15.1795 17.9427 15.1127 17.7746 15.1127H14.2254ZM7 8.90141C7 8.39712 7.20033 7.91349 7.55691 7.55691C7.91349 7.20033 8.39712 7 8.90141 7H23.0986C23.6029 7 24.0865 7.20033 24.4431 7.55691C24.7997 7.91349 25 8.39712 25 8.90141V10.9296C25 11.2757 24.9056 11.6152 24.7269 11.9116C24.5482 12.2079 24.292 12.4499 23.9859 12.6114V21.3239C23.9859 22.2989 23.5986 23.2339 22.9092 23.9233C22.2198 24.6127 21.2848 25 20.3099 25H11.6901C10.7152 25 9.78017 24.6127 9.09078 23.9233C8.40138 23.2339 8.01408 22.2989 8.01408 21.3239V12.6114C7.708 12.4499 7.45179 12.2079 7.27309 11.9116C7.09439 11.6152 6.99997 11.2757 7 10.9296V8.90141ZM9.28169 12.831V21.3239C9.28169 21.6402 9.34399 21.9534 9.46502 22.2456C9.58606 22.5378 9.76346 22.8033 9.98711 23.027C10.2108 23.2506 10.4763 23.428 10.7685 23.5491C11.0607 23.6701 11.3739 23.7324 11.6901 23.7324H20.3099C20.6261 23.7324 20.9393 23.6701 21.2315 23.5491C21.5237 23.428 21.7892 23.2506 22.0129 23.027C22.2365 22.8033 22.4139 22.5378 22.535 22.2456C22.656 21.9534 22.7183 21.6402 22.7183 21.3239V12.831H9.28169ZM8.90141 8.26761C8.55155 8.26761 8.26761 8.55155 8.26761 8.90141V10.9296C8.26761 11.2794 8.55155 11.5634 8.90141 11.5634H23.0986C23.4485 11.5634 23.7324 11.2794 23.7324 10.9296V8.90141C23.7324 8.55155 23.4485 8.26761 23.0986 8.26761H8.90141Z" fill="#017FFA"/>
</g>
<defs>
<clipPath id="clip0_105_150">
<rect width="32" height="32" fill="white"/>
</clipPath>
</defs>
</svg>
